<svg xmlns="http://www.w3.org/2000/svg" fill="#fff" viewBox="0 0 64 64"><g fill="#000"><path d="M25.48 58.8c-3.45-.18-8.47.81-8.87-4.33q-1.04-13.51-1.29-22.42-.29-10.5 5.19-20.68c2.11-3.9 6-6.76 9.51-9.28a3.35 3.33 44.7 013.88-.01q2.48 1.77 5.01 3.85c6.09 5.01 8.84 14.32 9.65 22.02q.3 2.81.08 6.61-.54 9.57-1.22 19-.15 2.18-.81 3.23c-1.49 2.4-5.14 2.13-7.63 1.92a1.28 1.27 3.4 00-1.39 1.23q-.06 2.66-2.6 2.53-3.25-.16-6.52-.04-.62.02-1.09-.36-1.07-.85-1.1-2.45a.84.83 1.1 00-.8-.82m10.38-7.53c1.89-.03 2.89 1.8 2.43 3.46q-.59 2.13 1.61 1.9 1.4-.15 2.87-.22 2.13-.09 2.3-2.22.83-10.6 1.33-21.54.4-8.68-3.98-18.24c-2.18-4.75-5.73-7.34-9.62-10.34a1.29 1.28-44.6 00-1.57-.01q-2.95 2.25-5.45 4.43c-4.53 3.95-7.01 12.12-7.83 17.93q-.7 4.87-.19 11.41.63 8.2 1.17 16.36a2.31 2.3-89.4 002.1 2.15q2.36.22 3.14.29 1.87.17 1.57-1.69-.63-3.79 2.88-3.69 3.31.09 7.24.02m-7.33 2.26a.64.64 0 00-.63.72l.66 5.46a.64.64 0 00.64.56l5.59-.02a.64.64 0 00.63-.56l.67-5.46a.64.64 0 00-.64-.72z"></path><path d="M44.14 37.55l-24.23-.02a.3.3 0 01-.3-.34l1.13-7.93a.3.3 0 01.3-.26l21.77-.04a.3.3 0 01.29.25l1.33 7.99a.3.3 0 01-.29.35"></path></g><path d="M35.86 51.27q-3.93.07-7.24-.02-3.51-.1-2.88 3.69.3 1.86-1.57 1.69-.78-.07-3.14-.29a2.31 2.3-89.4 01-2.1-2.15q-.54-8.16-1.17-16.36-.51-6.54.19-11.41c.82-5.81 3.3-13.98 7.83-17.93q2.5-2.18 5.45-4.43a1.29 1.28-44.6 011.57.01c3.89 3 7.44 5.59 9.62 10.34q4.38 9.56 3.98 18.24-.5 10.94-1.33 21.54-.17 2.13-2.3 2.22-1.47.07-2.87.22-2.2.23-1.61-1.9c.46-1.66-.54-3.49-2.43-3.46m8.28-13.72a.3.3 0 00.29-.35l-1.33-7.99a.3.3 0 00-.29-.25L21.04 29a.3.3 0 00-.3.26l-1.13 7.93a.3.3 0 00.3.34z"></path><path d="M28.53 53.53l6.92-.02a.64.64 0 01.64.72l-.67 5.46a.64.64 0 01-.63.56l-5.59.02a.64.64 0 01-.64-.56l-.66-5.46a.64.64 0 01.63-.72"></path></svg>