<svg xmlns="http://www.w3.org/2000/svg" fill="#fff" viewBox="0 0 64 64"><path d="M54.89 18.03q2.02 3.65 1.08 8.41a1.7 1.7 0 01-1.77 1.37c-2.17-.13-3.25-3-4.17-4.63q-1.06-1.88-1.01.28.14 6.51-2.36 12.26c-1.28 2.96-.16 5.57-1.05 8.46q-3.52 11.5-13.73 15.21-6.97 2.53-13.59.44Q6.45 56.09 3.34 44.54q-.96-3.54-.6-7.6.34-3.99 1.74-6.96 4.79-10.24 16.25-12.62c2.91-.6 5.88-.49 8.83.39q2.11.62 4.09 1.29a.8.8 0 001.02-.54q.51-1.8 1.47-3.15.5-.7-.37-.73-2.56-.08-4.96.75a2.02 2.01 69.6 01-2.54-1.17c-.36-.92-.12-2.17.59-2.93q4.45-4.79 9.86-3.9a.35.34 85.3 00.38-.45l-.6-1.83q-.16-.48.16-.88 1.25-1.57 3.22-.91c3.04 1 4.21 2.82 5.21 5.58q.22.61.84.43c6.34-1.87 11.09 1.61 12.79 7.63a2.61 2.59-38.6 01-.23 1.99c-1.68 3.07-3.82.02-5.29-1.16q-.83-.68-.31.26m-8.77-1.62c3.35 1.65 4.94 3.92 6.72 7.13q1.12 2.02 1.14-.29c.03-3.67-2.42-6.65-5.87-8.11q-2.53-1.07.19-1.46 4.98-.72 8.96 2.48.99.79.47-.37c-2.43-5.41-7.2-5.9-11.7-3.01q-.8.51-.81-.44-.05-3.69-2.68-6.38a.34.34 0 00-.42-.05l-.28.16q-.16.1-.09.27 1.36 2.88 1.28 5.85-.02.69-.6.32c-.7-.44-1.19-1.25-1.87-1.74q-4.22-2.98-8.56.82-1.54 1.34.46.95 3.92-.77 7.5.7a.77.77 0 01.21 1.3q-5.43 4.69-3.97 13.01.23 1.34.5.01.51-2.57 1.19-4.88c.88-2.98 2.47-4.66 4.68-6.56a.67.67 0 011.1.45c.62 7.04-.37 13.71-4.83 19.45a.05.05 0 00.03.08q2.39.28 4.81.11.23-.02.32-.22 4.45-9.37 1.64-19.18-.21-.73.48-.4M15.53 35.99c.82-3.2 3.13-4.72 5.92-6.17q.7-.36.22-.99l-5.6-7.38a.52.51-31.2 00-.63-.15q-5.41 2.46-8.32 7.95-.66 1.25.52 2.03 3.21 2.13 6.07 4.53.51.43 1.15.58.53.13.67-.4m24.59-12.92q-.19.78.58 1.16.78.37.79-.49l.02-1.98q.01-.65-.48-.22-.7.64-.91 1.53M31.77 38.9a7.36 7.36 0 00-7.36-7.36 7.36 7.36 0 00-7.36 7.36 7.36 7.36 0 007.36 7.36 7.36 7.36 0 007.36-7.36m-2.86 8.25q-.94.37-1.8.85a.58.57-33.5 00-.18.86l5.52 7.09a1.38 1.37 53.3 001.88.28c2.36-1.66 6.79-5.24 7.46-8.09q.22-.94-.56-1.51l-7.02-5.1q-.82-.6-1.03.4c-.46 2.2-2.09 4.37-4.27 5.22" fill="#000"></path><path d="M24.12 38.25a.4.39-31.9 01.62.14q.2.49-.09.99-.3.52-.64.03-.46-.65.11-1.16"></path><path d="M45.64 16.81q2.81 9.81-1.64 19.18-.09.2-.32.22-2.42.17-4.81-.11a.05.05 0 01-.03-.08c4.46-5.74 5.45-12.41 4.83-19.45a.67.67 0 00-1.1-.45c-2.21 1.9-3.8 3.58-4.68 6.56q-.68 2.31-1.19 4.88-.27 1.33-.5-.01-1.46-8.32 3.97-13.01a.77.77 0 00-.21-1.3q-3.58-1.47-7.5-.7-2 .39-.46-.95 4.34-3.8 8.56-.82c.68.49 1.17 1.3 1.87 1.74q.58.37.6-.32.08-2.97-1.28-5.85-.07-.17.09-.27l.28-.16a.34.34 0 01.42.05q2.63 2.69 2.68 6.38.01.95.81.44c4.5-2.89 9.27-2.4 11.7 3.01q.52 1.16-.47.37-3.98-3.2-8.96-2.48-2.72.39-.19 1.46c3.45 1.46 5.9 4.44 5.87 8.11q-.02 2.31-1.14.29c-1.78-3.21-3.37-5.48-6.72-7.13q-.69-.33-.48.4M15.53 35.99q-.14.53-.67.4-.64-.15-1.15-.58-2.86-2.4-6.07-4.53-1.18-.78-.52-2.03 2.91-5.49 8.32-7.95a.52.51-31.2 01.63.15l5.6 7.38q.48.63-.22.99c-2.79 1.45-5.1 2.97-5.92 6.17m16.24 2.91a7.36 7.36 0 01-7.36 7.36 7.36 7.36 0 01-7.36-7.36 7.36 7.36 0 017.36-7.36 7.36 7.36 0 017.36 7.36m-7.65-.65q-.57.51-.11 1.16.34.49.64-.03.29-.5.09-.99a.4.39-31.9 00-.62-.14"></path><path d="M28.91 47.15c2.18-.85 3.81-3.02 4.27-5.22q.21-1 1.03-.4l7.02 5.1q.78.57.56 1.51c-.67 2.85-5.1 6.43-7.46 8.09a1.38 1.37 53.3 01-1.88-.28l-5.52-7.09a.58.57-33.5 01.18-.86q.86-.48 1.8-.85"></path></svg>