<?xml version="1.0" encoding="UTF-8" standalone="no"?><svg xmlns="http://www.w3.org/2000/svg" fill="#fff" viewBox="0 0 64 64"><g fill="#000"><path d="M11.43 33q-4.49.04-5.89-3.92c-.55-1.56-.33-3.65-.24-5.31q.14-2.86 3.1-4.86 10.25-6.89 20.65-14.17c2.36-1.65 5.06-1.54 7.37.1l19.77 14.07c2.78 1.99 2.72 5.24 2.56 8.33-.14 2.73-1.98 5.4-4.82 5.68q-.79.08-.77.87.13 9.07.09 18.74c-.01 3.91-2.83 6.34-6.71 6.18q-12.36-.5-23.19-.09-3.24.12-5.8-.05c-3.55-.23-5.63-3.11-5.6-6.58q.09-10.53.03-18.45 0-.55-.55-.54m40.43-2.31c3.41.45 4.57-1.44 4.67-4.45.08-2.43.06-4.29-1.81-5.57q-9.4-6.46-19.29-13.69-2.63-1.92-5.43.01Q18.86 14.65 8.41 21.8q-.4.27-.53.74-.52 1.9-.4 4.28c.2 3.98 3.07 4.1 6.09 3.93a.65.64 87.9 01.68.64q.08 8.58.01 20.82c-.02 3.17 2.33 4.58 5.44 3.97q.58-.12.58-.71l-.03-3.22q-.01-.75.75-.75h23.25q.75 0 .74.75l-.01 3.23q-.01.66.64.74c3.03.39 5.41-.59 5.41-3.61q-.02-11.09-.02-21.17 0-.87.85-.75"></path><rect width="24.72" height="5.24" x="20.26" y="31.02" rx=".48"></rect><rect width="24.64" height="5.22" x="-12.32" y="-2.61" rx=".39" transform="rotate(.1 -25125.072 18711.819)"></rect></g><path d="M51.01 31.44q0 10.08.02 21.17c0 3.02-2.38 4-5.41 3.61q-.65-.08-.64-.74l.01-3.23q.01-.75-.74-.75H21q-.76 0-.75.75l.03 3.22q0 .59-.58.71c-3.11.61-5.46-.8-5.44-3.97q.07-12.24-.01-20.82a.65.64 87.9 00-.68-.64c-3.02.17-5.89.05-6.09-3.93q-.12-2.38.4-4.28.13-.47.53-.74Q18.86 14.65 30 6.99q2.8-1.93 5.43-.01 9.89 7.23 19.29 13.69c1.87 1.28 1.89 3.14 1.81 5.57-.1 3.01-1.26 4.9-4.67 4.45q-.85-.12-.85.75m-6.03.06a.48.48 0 00-.48-.48H20.74a.48.48 0 00-.48.48v4.28a.48.48 0 00.48.48H44.5a.48.48 0 00.48-.48zm-.036 10.182a.39.39 0 00-.39-.391l-23.86-.042a.39.39 0 00-.39.39l-.008 4.44a.39.39 0 00.39.39l23.86.042a.39.39 0 00.39-.39z"></path></svg>