<svg xmlns="http://www.w3.org/2000/svg" fill="#fff" viewBox="0 0 64 64"><path fill="#000" d="M39.12 50.02q1.9.94 3.59 2.55.42.39.44.97l.09 4.22a1.65 1.64 89 01-1.61 1.68l-5.38.11q-.67.01-.93.63l-.41.97a1.5 1.5 0 01-.68.74c-2.18 1.17-4.42.66-5.43-1.59q-.36-.79-1.22-.78-2.32.02-4.92-.07-1.37-.05-1.69-1.39-1.38-5.71 3.52-7.62a1.47 1.46 74 00.9-1.64q-.92-4.85-2.26-10.18c-1-3.97-.56-7.9-.71-11.87a1.07 1.06-6.4 00-1.26-1q-1.52.29-2.54-.86a1.51 1.46 26.3 01-.38-1.06c.11-2.48-.99-6.57 3.34-5.75a.71.7 5.8 00.84-.68q.08-3.4.67-6.79c2.14-12.08 15.94-11.66 18.03.28q.54 3.08.51 6.25a.9.89-5.4 001.08.89c1.68-.34 3.37.59 3.33 2.46-.06 2.48.76 5.78-3.33 5.26q-.98-.13-.98.86c-.02 3.88.34 7.64-.6 11.49q-1.4 5.73-2.47 10.99-.13.64.46.93m.41-30.41q-.18-3.11-.34-6.37c-.22-4.27-3.34-10.47-8.61-9.06-5.79 1.55-6.09 10.49-5.8 15.41q.04.64-.61.65l-2.14.03q-1.43.02-1.49 1.45l-.02.36q-.06 1.36 1.31 1.4l2.14.05a.8.79-87.6 01.77.85c-.33 4.89-.38 9.66.79 14.53q1.31 5.47 2.58 11.34a.7.69-22.3 01-.31.73l-4.26 2.7q-.51.32-.51.91l.01 1.94q0 .74.74.74l5.48.01q.48 0 .8.36.73.82 1 1.95.12.49.61.63 1.22.35 1.67-.92.27-.75.52-1.46a.94.94 0 01.88-.61l5.47.06a.68.68 0 00.65-.48c1.04-3.53-1.87-4.09-4.1-5.44a1.33 1.32-69 01-.62-1.41q1.19-5.99 2.65-11.9c1.13-4.59.68-9.3.71-13.95q.01-.6.61-.6h2.31q1.41-.01 1.45-1.42l.01-.53q.04-1.36-1.32-1.34l-2.32.05q-.67.01-.71-.66"></path><path d="M40.24 20.27l2.32-.05q1.36-.02 1.32 1.34l-.01.53q-.04 1.41-1.45 1.42h-2.31q-.6 0-.61.6c-.03 4.65.42 9.36-.71 13.95q-1.46 5.91-2.65 11.9a1.33 1.32-69 00.62 1.41c2.23 1.35 5.14 1.91 4.1 5.44a.68.68 0 01-.65.48l-5.47-.06a.94.94 0 00-.88.61q-.25.71-.52 1.46-.45 1.27-1.67.92-.49-.14-.61-.63-.27-1.13-1-1.95-.32-.36-.8-.36l-5.48-.01q-.74 0-.74-.74l-.01-1.94q0-.59.51-.91l4.26-2.7a.7.69-22.3 00.31-.73q-1.27-5.87-2.58-11.34c-1.17-4.87-1.12-9.64-.79-14.53a.8.79-87.6 00-.77-.85l-2.14-.05q-1.37-.04-1.31-1.4l.02-.36q.06-1.43 1.49-1.45l2.14-.03q.65-.01.61-.65c-.29-4.92.01-13.86 5.8-15.41 5.27-1.41 8.39 4.79 8.61 9.06q.16 3.26.34 6.37.04.67.71.66"></path></svg>