<?xml version="1.0" encoding="UTF-8" standalone="no"?><svg version="1.0" xmlns="http://www.w3.org/2000/svg" viewBox="0 0 33 33"><g transform="translate(0,33) scale(0.1,-0.1)" fill="#000" stroke="none"><circle cx="165" cy="165" r="155" fill="#fff" stroke="#000" stroke-width="13"/><path d="M116 183 c-16 -43 -31 -84 -33 -90 -3 -8 3 -13 15 -13 12 0 23 9 27 20 9 29 80 29 88 0 3 -12 14 -20 26 -20 21 0 21 0 2 48 -52 131 -53 132 -75 132 -18 0 -26 -14 -50 -77z m69 -10 c5 -20 3 -23 -19 -23 -24 0 -24 2 -14 31 11 32 21 29 33 -8z"/></g></svg>