<svg xmlns="http://www.w3.org/2000/svg" viewBox="0 0 50 50"><circle cx="25" cy="25" r="23.2" fill="#ff0" stroke="#000" stroke-width="1.8"/><path transform="translate(-1,0)" fill="#000" opacity="1" stroke="none" d="M32.247311,12.574819 C33.839970,13.806830 35.396080,14.662321 36.238102,15.975644 C36.879387,16.975876 36.614323,18.557203 36.752487,19.880005 C35.072315,19.854607 32.517696,20.510744 31.870451,19.680290 C29.629230,16.804691 27.313946,15.268364 23.835886,17.050177 C19.806711,19.114326 19.290947,22.957100 19.485279,26.889076 C19.664026,30.505690 20.613935,34.270851 24.536087,35.177299 C26.424606,35.613758 29.991117,34.449615 30.762962,32.957619 C32.781628,29.055468 34.804611,29.917059 37.669659,31.832691 C37.108490,36.499195 34.142448,39.051868 29.880566,40.176731 C24.349726,41.636517 18.835100,39.453983 15.893123,34.962349 C12.540029,29.843048 12.691436,21.497238 16.227680,16.520866 C19.532377,11.870339 24.651266,10.523128 32.247311,12.574819 z"/></svg>