<?xml version="1.0" encoding="UTF-8" standalone="no"?><svg version="1.1" xmlns="http://www.w3.org/2000/svg" viewBox="0 0 50 50"><circle cx="25" cy="25" r="23.2" fill="#fff" stroke="#000" stroke-width="1.8"/><g transform="translate(-1,0)"><rect x="15.8" y="12.15" width="6" height="26" style=""/><path fill="#000" opacity="1.000000" stroke="none" d="M15.799327,22.040279 C15.798406,12.005715 15.798454,12.002247 25.275852,12.135125 C26.440626,12.151456 27.608875,12.180708 28.768169,12.285353 C37.671486,13.089029 40.013149,17.731100 35.167221,25.484957 C38.632446,27.861837 40.283848,31.200581 38.580154,35.263920 C36.782940,39.550304 32.939342,40.464169 28.651855,40.354664 C24.532925,40.249470 20.409204,40.331932 15.799332,40.331932 C15.799332,34.088104 15.799332,28.310308 15.799327,22.040279 M22.927584,35.809105 C26.057667,35.735622 28.369754,36.140099 30.254532,35.422401 C31.533737,34.935295 32.849857,32.915432 32.943020,31.501539 C33.007908,30.516785 31.150871,28.697224 29.934324,28.481750 C27.298185,28.014843 24.522133,28.337887 20.578789,28.337887 C21.589603,31.333580 22.334938,33.542480 20.927584,35.809105 M31.633116,18.235096 C29.081923,17.777843 26.542721,17.138496 23.972563,16.969244 C23.152922,16.915268 21.658813,17.998337 21.516932,18.756447 C21.264160,20.107033 21.542330,22.728510 22.061481,22.850668 C24.396444,23.400084 27.040840,23.781937 29.275160,23.157007 C30.504910,22.813053 31.143703,20.356245 31.633116,18.235096 z"/></g></svg>