<?xml version="1.0" encoding="UTF-8" standalone="no"?><svg viewBox="0 0 64 64" version="1.1" xmlns:svg="http://www.w3.org/2000/svg"><g fill="#000"><path fill="#fff" d="M 3.6226415,17.207547 42.641509,17.283017 60.981132,32.226413 60.830189,40.07547 3.1698113,40.5283 Z" /><path d="M55.85 42.66c-.64 6.17-8 7.72-11.8 3.19q-1.13-1.34-1.22-3.12a.76.76 0 00-.76-.72L20.01 42q-.5 0-.59.5c-1.39 8.01-11.42 8.09-13.23.06q-.12-.53-.66-.55l-2.44-.07q-.56-.02-.82-.52-.94-1.84-.99-3.93c-.14-6.43-.63-13.66.84-19.82a2.86 2.85 6.7 012.78-2.19q18.02-.02 36.6.01c1.9.01 3.61.75 4.84 2.19q3.36 3.94 6.62 7.65a5.66 5.64-10.3 002.31 1.59l5.21 1.93a3.5 3.49 10.7 012.29 3.35q-.05 2.82.02 5.89c.08 3.95-3.22 4.03-6.14 3.88q-.73-.04-.8.69m-9.95-6.47q6.23-2.73 9.35 2.78.32.55.94.71 2.22.57 3.78-.73.45-.38.46-.97c.07-2.54 1.07-6.35-2.14-7.45-3.33-1.15-6.35-2.31-8.6-5.26q-2.83-3.73-5.83-6.49-1.17-1.07-2.98-1.07-19.06.03-35.13.01a1.83 1.83 0 00-1.82 1.67q-.8 8.71-.25 19.16a1.35 1.34 7.7 00.92 1.2q1.39.45 2.17-.83c3.01-4.98 9.22-4.78 12.22.29q.32.54.95.54l22.31-.01q.5 0 .81-.38c.92-1.13 1.43-2.55 2.84-3.17m-28.84 5.72a4.3 4.3 0 00-4.3-4.3 4.3 4.3 0 00-4.3 4.3 4.3 4.3 0 004.3 4.3 4.3 4.3 0 004.3-4.3m36.53.01a4.3 4.3 0 00-4.3-4.3 4.3 4.3 0 00-4.3 4.3 4.3 4.3 0 004.3 4.3 4.3 4.3 0 004.3-4.3"/><path d="M46.37 28.7l-10.4.04a.95.95 0 01-.96-.96l.02-6.42a.95.95 0 011.01-.95l5.31.33a.95.95 0 01.67.34l5.07 6.06a.95.95 0 01-.72 1.56" /></g><g fill="#fff"><circle r="4.3" cy="41.91" cx="12.76"/><circle cx="49.29" cy="41.92" r="4.3" /></g>
</svg>