<svg xmlns="http://www.w3.org/2000/svg" fill="#fff" viewBox="0 0 64 64"><path d="M17.63 17.36q9.1.17 24.62.1 7.72-.04 12.35-1.71c8.16-2.93 8.16 7.54 7.21 12.14q-.24 1.17-1.4 1.47-2.59.69-4.65 2.36c-.99.79-2.23 1.15-3.47 1.19q-5.93.18-12.37.05-.6-.02-.77.55l-1.91 6.13a3.05 3.04 8.7 01-2.91 2.13l-5.74-.01q-.97 0-1.21.94l-1.82 7.26a3.38 3.37 7 01-3.26 2.54H8.53q-3.86 0-2.86-3.73l4.01-15.01q.15-.56-.19-1.04l-1.04-1.46q-.32-.45-.32-.99v-3.34a.7.7 0 00-.7-.69l-3.16.03Q2 26.28 2 24.01l.01-3.99q0-2.22 2.22-2.25l3.26-.04q.71-.01.72-.72l.04-3.41a2.4 2.4 0 012.4-2.38l4.09.01q2.25.01 2.26 2.26l.01 3.24q0 .62.62.63m-1.68 2.31a1.31 1.31 0 01-.98-.98l-1.08-4.57a1.31 1.31 0 00-2.55.01l-1.06 4.57a1.31 1.31 0 01-.98.98l-4.57 1.08a1.31 1.31 0 00.01 2.55l4.57 1.06a1.31 1.31 0 01.98.98l1.08 4.57a1.31 1.31 0 002.55-.01l1.06-4.57a1.31 1.31 0 01.98-.98l4.57-1.08a1.31 1.31 0 00-.01-2.55zm10.58 19.82l7.69.01q.69 0 .88-.66l2.13-7.29a1.16 1.16 0 011.14-.83c4.81.1 10.3.38 15.06-.43q.58-.1.8-.64.92-2.24 3.85-2.13a1.48 1.47-81.8 001.49-1.12q1.02-4.1-1.47-7.88a1.74 1.74 0 00-2.48-.46q-2.31 1.68-5.14 1.68-13.14.03-26.35.01a.67.67 0 00-.67.66l-.03 3.74q-.02 2.19-2.2 2.15l-3.59-.07q-.64-.02-.64.63l-.04 3.82a2.1 2.1 0 01-2.14 2.08l-1.83-.04a.84.84 0 00-.82.62L7.88 49.49a.64.64 0 00.62.81l13.32-.04q1.36 0 1.69-1.33l2.12-8.73q.17-.71.9-.71"></path><path d="M33.68 31.22l-1.36 4.25a.37.37 0 01-.35.25l-4.48.06a.37.37 0 01-.37-.45l.95-4.28a.37.37 0 01.36-.29l4.89-.02a.37.37 0 01.36.48"></path><g fill="#000"><path d="M15.95 19.67l4.57 1.06a1.31 1.31 0 01.01 2.55l-4.57 1.08a1.31 1.31 0 00-.98.98l-1.06 4.57a1.31 1.31 0 01-2.55.01l-1.08-4.57a1.31 1.31 0 00-.98-.98l-4.57-1.06a1.31 1.31 0 01-.01-2.55l4.57-1.08a1.31 1.31 0 00.98-.98l1.06-4.57a1.31 1.31 0 012.55-.01l1.08 4.57a1.31 1.31 0 00.98.98"></path><path d="M25.63 40.2l-2.12 8.73q-.33 1.33-1.69 1.33L8.5 50.3a.64.64 0 01-.62-.81l4.29-16.15a.84.84 0 01.82-.62l1.83.04a2.1 2.1 0 002.14-2.08l.04-3.82q0-.65.64-.63l3.59.07q2.18.04 2.2-2.15l.03-3.74a.67.67 0 01.67-.66q13.21.02 26.35-.01 2.83 0 5.14-1.68a1.74 1.74 0 012.48.46q2.49 3.78 1.47 7.88a1.48 1.47-81.8 01-1.49 1.12q-2.93-.11-3.85 2.13-.22.54-.8.64c-4.76.81-10.25.53-15.06.43a1.16 1.16 0 00-1.14.83l-2.13 7.29q-.19.66-.88.66l-7.69-.01q-.73 0-.9.71m8.05-8.98a.37.37 0 00-.36-.48l-4.89.02a.37.37 0 00-.36.29l-.95 4.28a.37.37 0 00.37.45l4.48-.06a.37.37 0 00.35-.25z"></path></g></svg>