<svg xmlns:xlink="http://www.w3.org/1999/xlink" xmlns="http://www.w3.org/2000/svg" viewBox="0 0 1287.6 726.7">
  <use height="726.7" width="1287.6" xlink:href="#a"/>
  <defs>
    <g id="a" fill-rule="evenodd">
      <path d="m1003.75 183.8 16.65 9.6-37.9 65.45-16.6-9.6 37.85-65.45m-72.7-31.2 4.4-7.65 8.15 4.7-4.4 7.65-8.15-4.7m-47 7-8.15-4.75 4.7-8.15 8.15 4.7-4.7 8.2m-18.6 9.95 4.7-8.15 8.15 4.7-4.7 8.2-8.15-4.75m-11.75 13.7 4.7-8.15 8.15 4.7-4.7 8.2-8.15-4.75m-6.85-71.75 5.7 6.7-5.5 4.7 1.5 1.8-5.75 4.9-8.3-9.75 5.8-4.9 1.05 1.25 5.5-4.7m36.5 77.5 8.15 4.75-4.45 7.65-8.15-4.75 4.45-7.65m170.35 23.55 16.6 9.6-37.85 65.45q-8.3-4.8-16.65-9.65l37.9-65.4m12.05 94.3-16.65-9.6 37.9-65.45 16.6 9.6-37.85 65.45m71.5-46 16.65 9.6-37.9 65.45-16.6-9.6 37.85-65.45M867.35 108.9l-4.7-.6-2.45-4.15 1.65-4.55 4.5-1.55 4 2.65.45 4.85-3.45 3.35m3.75-22.3 4.5-1.55 4 2.65.45 4.85-3.45 3.35-4.7-.6-2.45-4.15 1.65-4.55m-48.6 41.7 5.6 2.45 2.2 5.7-2.45 5.55-5.7 2.25-5.55-2.5-2.25-5.65 2.5-5.6 5.65-2.2m-21.65-1 5.55 2.45 2.2 5.7-2.45 5.55-5.65 2.25-5.6-2.5-2.2-5.65 2.45-5.6 5.7-2.2m-19.7-9.3 5.6 2.45 2.2 5.65-2.45 5.6-5.7 2.2-5.55-2.45-2.2-5.7 2.45-5.55 5.65-2.2M698.5 88.05l4.25 4.85.65 6.35-3.25 5.55-5.9 2.55-6.25-1.4-4.25-4.8-.65-6.35 3.25-5.55 5.9-2.55 6.25 1.35M650 142.6l7.05-2.9 7.5 1.55 5.1 5.5.75 7.35-3.9 6.3-7.05 2.95-7.5-1.6-5.1-5.5-.75-7.3 3.9-6.35m30 1 7.05-2.9 7.5 1.55 5.1 5.5.75 7.35-3.9 6.3-7.05 2.95-7.5-1.6-5.1-5.5-.75-7.3 3.9-6.35M658.85 36.05l4.25 4.85.6 6.35-3.25 5.55-5.85 2.55-6.3-1.4-4.25-4.8-.6-6.35 3.25-5.55 5.9-2.55 6.25 1.35m-27.65.35 4.25 4.8.6 6.4-3.25 5.55-5.9 2.55-6.25-1.4-4.25-4.8-.6-6.4 3.25-5.5 5.85-2.6 6.3 1.4m-8.8 58.1-1.7-9.45 3.2-9.05 7.35-6.2 9.45-1.7 9.05 3.2 6.2 7.35 1.7 9.45-3.2 9.05-7.35 6.2-9.45 1.7-9.05-3.2-6.2-7.35m62.15-54.05 9.45-1.7 9.05 3.25 6.25 7.3 1.7 9.45-3.25 9.05-7.3 6.2-9.45 1.75-9.05-3.25-6.2-7.3-1.75-9.45 3.25-9.05 7.3-6.25m150.75 40.2 1.7 9.45-3.25 9.05-7.3 6.2-9.45 1.7-9.05-3.2-6.2-7.35-1.75-9.45 3.25-9.05 7.3-6.2 9.45-1.7 9.05 3.2 6.25 7.35M630.7 15.9v-3.25h-5.85V5h13v7.65h-.65v3.25h-6.5M653.2 0v7.9h-12.6V0h12.6m-84.1 72.4-9.35 10.55-6.7-5.9 9.35-10.55 6.7 5.9m-17.2 39.95 10.65-14.1 7.85 5.95-10.65 14.1-7.85-5.95m37.95-2.4 9.35 4.2-2.2 4.8-2.15-1-1.65 3.55-7.15-3.25 3.8-8.3M1145 339.75l5.25-1.9 4.25 3.6-1 5.5-5.25 1.9-4.25-3.6 1-5.5m131.8 350.05 5.8 6.6-13.7 12.1-5.8-6.6 13.7-12.1m-26.05 1.8 2.7-2.35 5.45 6.15-6.15 5.4-6.65-7.55 3.45-3.05 1.2 1.4M1100.5 510.8l3.8 2.15-40.9 71.25-3.75-2.15-11.3 19.7-71.95-41.3 11.25-19.7-4.6-2.65 40.85-71.25 4.65 2.65 11.95-20.9 72 41.3-12 20.9m-52.55 109.4-9.55 16.7-80.35-46.1 9.55-16.7 80.35 46.1M737.2 682.35l-1.9-.15.35-5.1-3.4-.1.25-8.35 3.7.1.15-2.05 33.15 2.25.25-10.3 6.7.15-.2 9.5 2.7.05-.05 2.5h.95l-.2 8.35-4.75-.1-.65 9.55 3.25.1-.05 2.75 10.8.25-.2 6.9-10.8-.25v.95L762.7 699l.15-5.35-26.3-1.75.65-9.55m-328.95-161-14.05 3.45-4.85-19.7 14.05-3.45 4.85 19.7m19.25-28.6 1.15 4.55-8 1.95-1.1-4.5 7.95-2m6.65 38 8.3 4.7-2.2 3.95 1.5.85-17.9 31.75-3.9-2.25-5.95 10.6-4.75-2.65 6-10.6-2.5-1.4 8.8-15.55-2.85-1.6 4.25-7.55 2.85 1.6 4.85-8.6 1.25.7 2.25-3.95M404.5 551.5l8.35 4.7-9.3 16.5-8.35-4.7 9.3-16.5m62.3-14.2 7.9.35 3.65 7-4.25 6.65-7.85-.35-3.65-6.95 4.2-6.7m-81.05-24.9 3.85 8.6-3.4 8.85-8.6 3.85-8.85-3.4-3.85-8.6 3.4-8.85 8.6-3.85 8.85 3.4m-12.15 26.8 8.65-3.85 8.8 3.4 3.85 8.6-3.35 8.8-8.65 3.85-8.8-3.35-3.85-8.65 3.35-8.8m-.5-351.8-9 16.35-16-8.8 9-16.4 16 8.85m37.9-5.2-17.4 31.55-16-8.8 17.4-31.6 16 8.85m-9.65 36.25 17.4-31.6 16 8.85-17.4 31.55-16-8.8" fill="#414141"/>
      <path d="m417.05 195.3 16 8.85-2.65 4.85-16-8.8 2.65-4.9" fill="#414141"/>
      <path d="m381.85 210.35 25.65-46.45 29.4 16.25-25.6 46.4-29.45-16.2" fill="#414141"/>
      <path d="m400.85 205.3 31.75 17.5-2.9 5.25-31.75-17.5 2.9-5.25" fill="#414141"/>
      <path d="m461.1 234.65-6.25 11.45-31.1-17.15L430 217.5l31.1 17.15" fill="#414141"/>
      <path d="m460 239.2-6.25 11.4-6.75-3.7 6.25-11.4 6.75 3.7m-1.65-2.85-5.05-2.75 6.3-11.45 5 2.8-6.25 11.4" fill="#414141"/>
      <path d="m459.1 231.1-2.8-1.55 6.25-11.4 2.85 1.55-6.3 11.4m15.95-15.75-2.8-1.55 4.5-8.1 2.8 1.55-4.5 8.1m.4-20.75 2.15-3.75 8.75 5.05-2.15 3.75-8.75-5.05m-38 45.65-7-3.85 6.3-11.4 7 3.85-6.3 11.4" fill="#414141"/>
      <path d="m455.55 235.35-6.3 11.45-18.8-10.4 6.3-11.4 18.8 10.35m-16.15-69.1-25.6 46.4-4.7-2.55 25.65-46.45 4.65 2.6" fill="#414141"/>
      <path d="m439.1 174.5-12.7-6.95L437 148.4l12.65 7-10.55 19.1m11.2-34-12.7-7 11.05-19.95 12.65 6.95-11 20m40.2-49.9-7.3 13.25-10.3-5.65 7.35-13.25 10.25 5.65m25.6 73.75-9.15-5.05 4.2-7.6 9.15 5.05-4.2 7.6M563.95 186l-12-6.6 7.75-14 11.95 6.6-7.7 14m-143.2 40.5-2.7.15-1.95-1.8-.15-2.7 1.85-1.95 2.65-.15 2 1.8.1 2.7-1.8 1.95m13.75-23.65-1.9.8-1.95-.8-.75-1.9.8-1.9 1.9-.8 1.9.8.75 1.9-.75 1.9m104.45 51.75-18.25 31.55-10.35-6 18.25-31.5 10.35 5.95m40.2 72.65L557.6 314.8l2.5-4.35-2.85-1.65 5.15-8.9 2.85 1.65 2.9-5 21.55 12.5-10.55 18.2m12.65-72.35 21.55 12.45-10.55 18.25-21.55-12.45 2.55-4.35-2.85-1.65 5.15-8.9 2.85 1.65 2.85-5m14.35-24.35 21.55 12.5-10.55 18.2-21.55-12.45 2.5-4.35-2.85-1.65 5.15-8.9 2.85 1.65 2.9-5m34.9-12.2L630.5 236.6l-21.55-12.45 2.5-4.35-2.85-1.65 5.15-8.9 2.85 1.65 2.9-5q10.8 6.25 21.55 12.45m-131.5 11.75-2.9-1.7 1.75-2.95-9.15-5.25 2.8-4.85 9.15 5.25.9-1.55 12.55 7.25-5.45 9.4-.6-.4-1.9 3.3 1.55.95-.75 6.55-2.95-2.1-4.05 7.05 3 1.5-5.4 3.7-3.55-2.15.7-1.05-3.6-2.1-.75 1.2-3.95-2.65.8-6.55 2.1 1.6 4-6.95-2.15-1.15 5.45-3.65.6.35 1.8-3.05m91.05-39.95 1.85 1.05 2.05-3.8 7.05 3.9-2.05 3.75.8.45-17 30.9-3.55-1.95-3.65 6.65 3.2 1.75-17 30.9-1.85-1-1.95 3.5-7.05-3.85 1.95-3.55-.85-.45 17.05-30.9 2.55 1.4 3.65-6.6-2.25-1.25 17.05-30.9m-58.15 49.05-3.15-1.9 3.75-6.2 3.1 1.9-3.7 6.2m74.55-67 1.9-3.15 6.25 3.7-1.9 3.15-6.25-3.7m31.6 4.3h-8V171h8v5.5m13 8.5h-12.5v-6h12.5v6" fill="#414141"/>
      <path d="M660.1 173.5h20.75v12.75H660.1V173.5" fill="#414141"/>
      <path d="M665.6 169.25h11V182h-11v-12.75m31.75 5.5-4.05-2.25 3-5.3 4.05 2.3-3 5.25m-55.65-6.55-2.25-.35-.35-2.2 2.05-.95 1.55 1.55-1 1.95m0-4.25-2.25-.35-.35-2.2 2.05-.95 1.55 1.55-1 1.95m53.5 13-2.25-.35-.35-2.2 2.05-.95 1.55 1.55-1 1.95m8.5-16-2.25-.35-.35-2.2 2.05-.95 1.55 1.55-1 1.95m79.4 90.4 13.15 7.55-18.75 32.6-13.15-7.55 18.75-32.6m33-24.75-10.85 18.9-13.15-7.55 10.85-18.9 13.15 7.55" fill="#414141"/>
      <path d="m811.65 227.55-10.9 18.95-9.15-5.3 10.85-18.9 9.2 5.25m-24.45 22 9.2 5.25-10.9 18.95-9.15-5.3 10.85-18.9m-2.55 24.75-10.9 18.95-9.15-5.3 10.85-18.9 9.2 5.25m127 18.85 5.65 3.25-17.65 30.7 3.15 1.8-15.45 26.85-8.8-5.05-2.45 4.3-61.75-35.45 1.2-2.1-8.25-4.7 35.25-61.35 8.25 4.75 4.5-7.8 61.7 35.5-5.35 9.3M714.05 176.9l8.25 4.75 4.5-7.8 61.7 35.5-5.35 9.3 5.65 3.25-17.65 30.7 3.15 1.8-15.45 26.85-8.8-5.05-2.45 4.3-61.75-35.45 1.2-2.1-8.25-4.7 35.25-61.35m104.8 74.1-6.55 11.4-7.7-4.45 6.5-11.35 7.75 4.4m166.75 71.85-25.75 45.95-29.3-16.4 25.7-45.95 29.35 16.4" fill="#414141"/>
      <path d="m956.55 360.95-29.3-16.45 18.5-33.05 29.35 16.4-18.55 33.1" fill="#414141"/>
      <path d="m970.3 309.2-18.5 33.05-9.4-5.25 18.55-33.05 9.35 5.25m14.65 8.15-18.5 33.1-9.35-5.25 18.5-33.1 9.35 5.25m-1.25 57.45-15.1-8.45 7.65-13.75 15.1 8.45-7.65 13.75" fill="#414141"/>
      <path d="m1028.4 347.85-25.6 45.7-29.2-16.35 25.55-45.7 29.25 16.35" fill="#414141"/>
      <path d="m1010.7 391.65-29.25-16.35 17.7-31.65L1028.4 360l-17.7 31.65" fill="#414141"/>
      <path d="m1013.8 333.95-17.75 31.65-9.75-5.45 17.7-31.65 9.8 5.45m-3.55 40.5-9.8-5.5 17.7-31.65 9.8 5.5-17.7 31.65m13.45 11.85-3.8 6.8-9.8-5.45 3.85-6.85 9.75 5.5m54.95-31.4-3.55-1.95 3.85-6.8 3.5 1.95-3.8 6.8m22.9 4.05-2.65 4.8-9.55-5.35 4.15-7.5 7.5 4.2-1.5 2.7 2.05 1.15" fill="#414141"/>
      <path d="m1046.35 366.85-18.85 33.75-11.55-6.45 18.9-33.75 11.5 6.45" fill="#414141"/>
      <path d="m1040.5 373.35-17.5 31.3-8.4-4.7 17.55-31.3 8.35 4.7m23.65-4.55 21.2 11.85-17.15 30.6 20.65 11.55-15.55 27.75-41.8-23.4 32.65-58.35m-43.05 16.4-2.45-1.05.25-2.6 2.55-.6 1.35 2.25-1.7 2m11.9-26.65 2.55-.2.95 2.35-1.9 1.65-2.2-1.35.6-2.45" fill="#414141"/>
      <path d="m1072.85 371.55 2.55-.2.95 2.35-1.95 1.65-2.15-1.35.6-2.45m68.1 12.5 14.55 86.8-19.4 3.25-14.55-86.8 19.4-3.25" fill="#414141"/>
      <path d="m1129.25 390.05 14.5 86.8-5.3.9-14.55-86.8 5.35-.9" fill="#414141"/>
      <path d="m1137.5 382.15 14.55 86.8-12.6 2.15-14.55-86.8 12.6-2.15" fill="#414141"/>
      <path d="M1124.6 386.35h-3.4l-1-3.25 2.75-1.95 2.7 2-1.05 3.2m-72.1 74.6-6.65-3.55 3.6-6.8 6.7 3.55-3.65 6.8m50 29.25-6.65-3.55 3.6-6.8 6.7 3.55-3.65 6.8m25.6 46.6-4.15-2.25 4.85-9.1 4.15 2.2-4.85 9.15m23 2.9-4.85 9.1-4.15-2.2 4.85-9.15 4.15 2.25" fill="#414141"/>
      <path d="m546 380.1-5.25-4.55L223.8 191.2l-12.1-2.65-10.3 1.6-10.4 8.6-7.85 14.25 352.3 201.8 10.1-17.15 3.5-9.7-3.05-7.85m155.7 236.55-28.4-53.75-516.15-295.65-12.1 19.65-1.2 4.1.95 3.35 3.1 3.05 553.8 319.25m43.5-170.5-14.4 25.35-10.45-5.95 14.45-25.4-124.8-72.1-27.35 44.65-.75 2.05-11.75 19.9 142.5 81.65 111.05-24.85-78.5-45.3m104.65 93.4L864 514.7l-22.4-12.9-110.95 24.8 165.65 94.9 39.05-65.6-60.95-35.2-14.1 24.8-10.45-5.95m-45.4-223.95 79.05 45.65 43.75-74.6-79.7-46.9-43.1 75.85m1.9-100.1-44.55 75.45 32.25 18.65 43.15-75.9-30.85-18.2M661.9 267.95l-41.35 71.6L960 535.5l41.35-71.6L661.9 267.95m60.1-102.1-2-.2-1.45.5-2.75 3.05-25.9 45.85-4.25 5.3-8.5 2.15-6.4-1.1-70.8-43.75L529.8 298.4l-8.7-4.95 54.8-93.8-16.9 4-5.35 2.85-16.05 28.05-8.65-5 12.9-22.7-4.1.55-18-1.45-24.6-6.5-8.75-6.55-20.05-27.4L434.6 147l-13.5-1-107.5 51.75L564 342.8l13.4 11.5 2.25-3.75-.05-.05 71.3-123.55 100.5 58L796 209.4l-74-43.55m360 159.85 31.85 18.3 46.25-79.25-32.15-18.65-45.95 79.6m30.9 39.85-8.65-5.05 4.6-7.85-27.6-15.85-52.45 91.95 107.65 60.85 29.9-7.45-16.15-88.2-4.25-16.8-3.8-5.35-24.65-14.15-4.6 7.9M1040.75 302l32.55 18.7 46-79.6-32.5-18.85-46.05 79.75M918.5 381.45l13.7-24.1 21.75 12.35-13.8 24.25 21.75 12.55 14.3-25.15 21.75 12.35-14.4 25.3 46.7 28.35-55 99.35 7 4-46.2 82.25 86.05 48.55 105.25-183.25-114.95-64.95 58.45-102.45-174.75-100.5-159.55-93.2-8-1.15-105.15-.8.55.3-18.05 31.7 69.15 42.75 1.6.3 2.2-.55 1.1-1.4L706 162.15l5.6-6.25 6.9-2.5 7.35.8 217.8 128.2-49.75 84.85 24.6 14.2m126.25-183.55-46.15 79.85 33.5 19.25 46.05-79.75-33.4-19.35m-8.65-5.05-31.75-18.35-46.2 80 31.8 18.3 46.15-79.95M919.5 125.3l-5.95-2.45-10.25-2.2-7.4 3.05-47.95 39.6-12.1 20.3 113.65 65.9 46.2-80.05-76.2-44.15m367.55 580.9.55 9.05-8.15-2.9-25.9-27.55-33.15-48.1-22.4-42.6-14.25-37.85L1170 501.9l-1.45-7.95-29.05 7.25-112.95 196.65-43.2-24.45L968 702.65l52.45 12.7 29.35-42.1 87.3-8.2.95 9.95-82.7 7.8-30.65 43.9-71.55-17.35 21.5-40.85-44.75-25.25-15.85 26.65-.8-.45-13.3 23.25L696 575.9l42.75 80.85-12.35 6.55-12.4-23.4-574.7-331.3-6.95-6.9-3.05-10.7 2.8-9.85L145 260.3 0 177.25l29.8-52.1 118.65 68 11.15-20.3 24.75-20.55 28.7-4.45 25.45 5.65 58.8 34.2 120.55-63.45 56.25 31.2 22.1 27.3 5.15 3.85 20.75 5.5 15.3 1.2 9.6-1.2 38.35-9.1 27.3-47.9-10.3-.1-12.3-1.1-10.45-5.85L531.95 93l-6.45-5.2-3.4-9.2 9.6 1.35 53.6 39.85 7.8 4.35 9.75.85 126.45 1 10.6 1.55 87.3 51 13.05-21.85 50.05-41.35 9.15-4.9 11.75.6 13.05 5.4L1185.1 267.7l-5.05 8.65-11.3-6.55-46.2 79.2 26.45 15.25 6.2 8.65 4.85 19.1 19.75 107.95 13.55 53.55 13.8 36.45 21.95 41.8 32.25 46.75 25.7 27.7" fill="#b3b3b3"/>
      <path d="m449.25 482.8-19.55 38.25-9.7-4.95 19.5-38.25 9.75 4.95" fill="#b3b3b3"/>
    </g>
  </defs>
<div xmlns="" id="divScriptsUsed" style="display: none"/><script xmlns="" id="globalVarsDetection" src="moz-extension://a8f8a557-9adb-4b9b-a15d-de59ef70889b/js/wrs_env.js"/></svg>