<svg xmlns:xlink="http://www.w3.org/1999/xlink" xmlns="http://www.w3.org/2000/svg" viewBox="0 0 377.65 406.3">
  <use height="406.3" width="377.65" xlink:href="#a"/>
  <defs>
    <g id="a" fill-rule="evenodd">
      <path d="m130.8 269.05 15.9 13.85 2.2 1.6 2.25.45h44.2l.4-.35.5-.65.15-1.25v-9.95l.9-3.15 2.1-2.25 24.6-12.7-16.9-32.25-37.15.05-39.15 46.6m-18.75-16.3 15.35 13.35 36.65-43.65-53.4.05v24.9l.45 3.5.95 1.85m-1.4-50.05V217l134.55-.1v5.5h-33l15.8 30.2 24.2-12.4 2.25 4.45-24.1 12.4 3.5 6.7 14.5 4.1-.5 1.95-12.8-3.65 6.65 12.3-3.9 2.25-6.95-12.55-3.5 12.85-1.9-.55 3.95-14.75-3.1-6.6-23.85 12.3-.7.75-.35 1.25v9.65L201 286l-1.7 2.15-2.2 1.8h-16.95v5.25l11.1 11.05-1.45 1.4-9.65-9.6v14.05h-4.5v-14.15l-9.15 9.2-1.4-1.4 10.55-10.6v-5.2H150.7l-3.75-.7-3.4-2.4-.05-.1-15.7-13.65-4.85 5.9 1.4 15.6-2 .15-1.2-13.55-9.05 10.75-3.45-2.9 9.1-10.8-12.95 1.15-.15-2 14.75-1.3-.25-.15 5.05-6-16.1-14.05-1.85-3.45-.6-4.7V229.4h-6l-11.1 11.05-1.4-1.4 9.65-9.65H82.75v-4.5h14.1l-9.15-9.2 1.4-1.4 10.6 10.6h5.95v-22.2h5m82.95-50.25V111.8h-22l-35.15 40.65h57.15m5.5-40.65v11h40.85l-15.9-11H199.1m-5.25-13.45v-14.1h4.5V98.4l9.15-9.2 1.45 1.45-10.6 10.6v5.05h27.45l18.95 13.2 2.8-4-2.7-15.4 1.95-.35 2.35 13.45 8.1-11.55 3.7 2.6-8.15 11.55 12.8-2.25.35 2-14.75 2.6-3.3 4.65h9.4v22.25h-4.5V127.3h-8.05l-5.9 8.45-3.7-2.55 4.15-5.9h-40.2v30.65h-68.3v-7.4l19.8-22.9-3.85-3.25-15.6 1.35-.15-2 13.55-1.2-10.75-9.05 2.9-3.45 10.8 9.1-1.1-12.95 1.95-.15 1.35 14.9 3.85 3.3 15.5-17.95h24.8v-5.15L182.8 90.1l1.4-1.4 9.65 9.65" fill="#363636"/>
      <path d="m321 91.1-4.8-12.6-55.8-45.8-12.15-4.3-101.8 3.95-12.8 6.65-64.1 61.95-8.3 11.6L32.6 190.5l-1.2 15.05h-.05L36 299.6l5.1 10.1 98.55 62.55L153.5 374l80.75-12.2 14.25-7.55 46.8-49 3.75-11.8-7.15-48.2 2.85-45.45v-9.25h9v9.7l-2.8 44.65 8.65 58.4-62.75 65.7-104.25 15.75-115-72.9-5.8-117.95L55.5 102l80.95-78.25L257.85 19l76.2 62.5-29.3 80.75v3.05h-9v-4.65L321 91.1" fill="#272727"/>
      <path d="m300.15 98.4 1.25-3.5-.1-5.15-1.7-4.2-2.2-3.2-7-5.5-34.95-22.05-4.9-2.75-8.45-3.3-5.9-1.15-13.7-.45-62.75 1.75-8.35 1.25-4.55 1.25-3.4 1.85-5.45 4.2L80.5 117l-2.35 4-26.85 76.4-1.45 7.05-.55 7.05 4.6 80.75.7 2.6 1.2 2.4 2.45 3.15 3.7 2.85 36.9 24.5 38.3 22.5 5.65 2.05 11.25.5 7.45-1.15h.1l44.25-5.05 16.4-4.25 8.6-3.35 6.2-3.65 7.15-5.65 15.75-15 16.15-13.25 1.8-3.55 2.1-5.8-.05-4.3-5.95-24.6-.65-6.25 2.95-20.4 1.35-5.05v-51.3l-129.55.15v-10l129.55-.15v-31.55l1.6-7.05 1.9-5.55 2.9-4.75 16.1-22.9M280.3 18.3l-9.95-5.45-9.5-3.45-16.65-.9-104.8 4.9-12.3 3.5-9.3 6-71.25 72.9-9.1 15.2-28.9 85 6.55 122.15 5 8.4 10.6 7.85 96.7 58.35 10.95 3 10.4 1.9 104.3-18.1 34.55-26.85 24.15-25.45 19.05-30.05 10.75-31.35 1.15-10.9h-1.55l-4-12.9v-61.9l-50 .05v52.6l-1.6 5.8-2.65 18.4.5 4.6 6.05 24.95.05 3 7.55 2.65-3.95 11.35-6.3-2.2-.15.35-3 5.8-17.4 14.35-15.8 15-8.05 6.35-1.25.75 4.75 9.45-10.75 5.35-4.7-9.4-5.25 2.05-17.6 4.55-44.85 5.15-8.15 1.25-.95-.05-1.25 9.85-11.9-1.55 1.1-8.85-.75-.05-7.75-2.8-39.3-23.1L56.4 311l-4.9-3.85-.5-.6-6 3.15-5.55-10.65 5.65-2.95-.65-2.3-4.7-82.35.6-7.25-6.3-.35.7-12 8.25.45 26.3-74.75-6.5-4.55 6.9-9.8 6.45 4.55 55.5-57.45 6.55-5 .2-.1-2.8-5.6 10.75-5.35 3.25 6.55 9.3-1.35 63.65-1.85 14.7.55 7.4 1.45.3.1 3.45-9.45 11.25 4.15-3.6 9.85 39.85 24.8 8.55 6.75L308 81l5.85-1.95 3.75 11.45-6.75 2.15.1 3.8-2.35 6.4-18.8 27.25-1.4 4.1-1.25 5.5v30.5l50-.05v-60.4l4-12.9h2V84.4l-1.35-7.05-2.2-5.8-3.85-6.55-55.45-46.7M244.2 0l18.4.95 11.3 4.15 11.25 6.15.3.3 56.85 47.9 5 8.4 2.75 7.15 1.6 8.6v13.25h19.8v158.1h-20.2l-1.35 12.75-11.4 33.2-20 31.6-.25.3-24.9 26.25-36.75 28.5-107.9 18.75-12.25-2.25-12.4-3.4-98.1-59.15-12.3-9.15-6.9-11.65L0 194.85l29.7-87.45 10.05-16.8 72.65-74.3 11.15-7.25 14.5-4.1L244.2 0" fill="#b4b4b4"/>
      <path d="m194.35 300.6-1.45 1.45-1.45-1.45 1.45-1.45 1.45 1.45m-29 1-.9.9-1.45-1.45.9-.9 1.45 1.45m21.4 3.6 1.4 1.35-2.5 2.5-1.4-1.35 2.5-2.5M162.8 82.05v-1.3h1.1v1.3h-1.1M128.35 325.9v-1.8l3.45.1-.05 1.8-3.4-.1" fill="#6f6f6f"/>
      <path d="m126.7 325.15.05-.9 1.85.05-.05.9-1.85-.05m86.1.6.05-1.75 3.45.05-.05 1.8-3.45-.1" fill="#6f6f6f"/>
      <path d="M211.2 325.55v-.95l1.85.05-.05.95-1.8-.05m-39-95.35v-1.45h1.95v1.45h-1.95m1.15-2v-1h1v1h-1m-79.1 15.35-1.45-1.45 1.45-1.45 1.45 1.45-1.45 1.45m-1-29-.9-.9 1.4-1.4.9.9-1.4 1.4m-4.95 22.8-2.55-2.5 1.4-1.4 2.5 2.55-1.35 1.35m45.2-105.6-.2-2 2.05-.2.2 2.05-2.05.15m17.9-22.85-.15-1.25 2.05-.2.1 1.3-2 .15m-18.45 14.3-.35-3.55 1.95-.15.3 3.5-1.9.2m61.4 177.4-1.45 1.45-1.45-1.45 1.45-1.45 1.45 1.45m-29 1-.9.9-1.45-1.45.9-.9 1.45 1.45m21.4 3.6 1.4 1.35-2.5 2.5-1.4-1.35 2.5-2.5m-56.4-12.95-2 .2-.2-2.05 2-.2.2 2.05m-24.3-19.8 1.3-.1.15 2.05-1.25.1-.2-2.05m15.7 20.4-3.5.3-.2-1.95 3.55-.3.15 1.95m17.7-78.6v2.05h-3.6v-2.05h3.6M117 213.4v2.8h-3.6v-2.8h3.6m7.4-16.85v-2.15h2.75v2.15h-2.75m123.8 64.85-.5 1.95-2-.55.55-1.95 1.95.55m69.9-1.2v2.05l-2.05-.05v-2h2.05m2.35.35-.1 2-2.05-.1.1-2 2.05.1" fill="#6f6f6f"/>
      <path d="m322.4 260.9-.25 1.85-2.05-.3.3-1.85 2 .3m-98.8 15.85-.35 1.25-1.95-.55.35-1.2 1.95.5m22.2-7.1-.9 3.45-1.9-.55.95-3.4 1.85.5m-66.1-173.9 1.4-1.4 1.45 1.45-1.4 1.4-1.45-1.45m28.95-.95.9-.9 1.45 1.4-.9.9-1.45-1.4m-18.9-6.1-2.5 2.5-1.35-1.4 2.5-2.5 1.35 1.4m49.3 14.25 2-.35.35 2.05-2 .35-.35-2.05m24.3 15.8 1.25-.2.35 2-1.25.2-.35-2m-15.8-17.1 3.5-.6.3 1.9-3.5.6-.3-1.9" fill="#6f6f6f"/>
      <path d="m197.35 293.05 8.15.2v49.15h-3.15v2.9h-48.8v-2.9h-3.15v-49.15l8.4-.2 3.85 3.6-.9 2.55 3.75 3.85 2.05-2 1.35 1.35-2 2.05 7 7.15h8.1l7.05-7.15-2.05-2.05 1.4-1.35 2 2 3.8-3.85-1.05-2.25 4.2-3.9m-16.2-171.5v14.35h-3.05v25.25h-4.6V135.9h-3.15v-14.35h10.8m-18.65 38.2v54.3h-11.4v-54.3h11.4" fill="#424242"/>
      <path d="M159.95 162.9v48.7h-11.4v-48.7h11.4m40.35-1.8v48.45h-11.4V161.1h11.4" fill="#424242"/>
      <path d="M203 162.9v48.45h-11.4V162.9H203" fill="#424242"/>
      <path d="M200 214.2h-45.15v-8.7H200v8.7m-48.45-54.15h48.75v6.9h-48.75v-6.9" fill="#424242"/>
      <path d="M192.85 205.7H159.9v-16.3h32.95v16.3m57.8 5.55h-56.6V192.4h56.6v18.85" fill="#424242"/>
      <path d="M235.8 217.15h-28.1v-30.9h28.1v30.9m23.25-54.45v48.95h-14.4V162.7h14.4m18.35 0v48.95H263V162.7h14.4" fill="#424242"/>
      <path d="M274.9 214.6h-27.1v-22.15h27.1v22.15m-27-54.8h26.45v6.9H247.9v-6.9m-36.5 30.5-5.85 5.85-2.95-3 5.85-5.85 2.95 3m20.95.25 2.95-2.95 5.85 5.85-2.95 2.95-5.85-5.85m-20.85 23-3 3-5.85-5.85 3-3 5.85 5.85m20.9-.25 5.85-5.85 2.95 2.95-5.85 5.85-2.95-2.95" fill="#424242"/>
      <path d="M274.85 239.7H261v-25.6h13.85v25.6" fill="#424242"/>
      <path d="M277.15 222.2v15.75h-11.6V222.2h11.6" fill="#424242"/>
      <path d="M261.05 234.65h17.1v5.3h-17.1v-5.3m64.1 25.6H311.2V226.4h13.95v33.85m-13.1-47.3h-9.7v-13.4h9.7v13.4" fill="#424242"/>
      <path d="M323.65 201.7h-12.5v-13.3h12.5v13.3" fill="#424242"/>
      <path d="M330.65 189.4h-26.3v-5.7h26.3v5.7" fill="#424242"/>
      <path d="M330.55 212.7h-13.1v-26.2h13.1v26.2m-5.15 4.7h-8.35v-3.85h8.35v3.85m4.3-51.7h-9.85v-3.95h9.85v3.95m-95 26.35h-26.05v-13.8h26.05v13.8m-27.15-62.4h28.3v1.25l4.75 4.5h32.6v12.5h-7.1v6.45h-25.7l-4.55 4.35v1.8h-1.05v8h-26.35v-8h-.9v-1.8l-4.35-4.35-.1-18.85 4.45-4.45v-1.4" fill="#424242"/>
      <path d="M249.65 161.7h-5.45v-8h5.45v8m-104.5 34.05 3.7 4.1.7 10.7-4 4.5H110.7v-19.3h34.45m-27.5-23.65v20.35h-12.6V172.1h12.6" fill="#424242"/>
      <path d="M116.35 167.7v20.35h-10V167.7h10m-.9-.4h-6.35l-.5-.45-.1-.6.1-.55.5-.4h6.35l.4.4.1.55-.1.6-.4.45m31.5 25.4.4.4.1.55-.1.6-.4.45h-6.35l-.5-.45-.1-.6.1-.55.5-.4h6.35M84.65 159v2.75l-.95 2.65-1.85 2.05-2.5 1.25-2.75.3-2.65-.7-2.25-1.65-1.5-2.35-.55-2.75.5-2.7 1.4-2.4 2.2-1.7 2.7-.8 2.75.25 2.5 1.2 1.9 2 1.05 2.6m16.65 26.95.05 1.85-.65 1.7-1.25 1.4-1.65.85-1.85.2-1.8-.5-1.45-1.1-1-1.55-.35-1.85.3-1.8.95-1.6 1.45-1.1 1.8-.55 1.85.15 1.65.8 1.25 1.35.7 1.75m-30.55-.45 1.25 1.4.7 1.7.05 1.85-.65 1.75-1.25 1.35q-.8.45-1.65.85l-1.85.2-1.8-.5-1.45-1.1-1-1.55-.35-1.8.3-1.85.95-1.55 1.45-1.15 1.8-.55 1.85.15 1.65.8m33.8-56.1v36.15h-13.3V129.4h13.3" fill="#424242"/>
      <path d="M103.05 125.55v44H92.7v-44h10.35M68.3 171.4l-.4-.4v-.45l.4-.4h.45l.4.4v.45l-.4.4h-.45m-2.2 100.95.35.35v.5l-.4.35h-.45l-.4-.35.05-.5.35-.35h.5m46.7-30.15-.35-.4v-.45l.35-.4.5.05.35.35v.5l-.35.35h-.5m36.9 36.75-.35-.35v-.5l.35-.35h.5l.35.4v.45l-.35.35h-.5m-16 50.7-.35-.35v-.5l.35-.35h.5l.35.35v.5l-.35.35h-.5m87-1.95-.35-.35v-.45l.35-.4h.5l.35.4v.45l-.35.4-.5-.05m-27.1-90.4-.4-.35v-.5l.4-.35h.45l.4.4v.45l-.4.4-.45-.05m57.95-2.8-.35-.35v-.5l.35-.35h.5l.35.35v.5l-.35.35h-.5M148 145.05l-.35-.35v-.5l.35-.35h.5l.35.35v.5l-.35.35h-.5M211.3 116l-.35-.35v-.5l.35-.35h.5l.35.35v.5l-.35.35h-.5m-53.45-26.9.4-8.9 5.05.25-.4 8.85-5.05-.2" fill="#424242"/>
      <path d="m156.1 85.5.15-2.75 3.55.15-.15 2.75-3.55-.15m3-26.35-9.85 2.25-.85-3.9 9.8-2.25.9 3.9m78.95 6.25h-3.85V55.25h3.85V65.4m60 82.95-3.65-1.05 2.85-9.55 3.65 1.1-2.85 9.5m-30.55 106.4h3.55v10h-3.55v-10M70.95 263.9v9.8H67.4v-9.8h3.55m70.45 71.5-3.75-.1.35-9.95 3.75.15-.35 9.9" fill="#424242"/>
      <path d="m146.5 334.95-5.45-.2.35-9.1 5.4.2-.3 9.1m-13.55-.65-10.8-.3.3-9.15 10.75.35-.25 9.1m93.85.3-3.75-.1.35-9.95 3.75.15-.35 9.9" fill="#424242"/>
      <path d="m227.05 325.65 5.4.2-.35 9.1-5.4-.2.35-9.1m-8.6 8.6-10.75-.3.25-9.1 10.75.3-.25 9.1M58.7 264.55v9.85h-3.55v-9.85h3.55M377.65 70.8l-22.2 10.35-10.6-22.8 22.2-10.3 10.6 22.75M348.4 45.65l-7.4 4.1-1.6-3 7.35-4.05 1.65 2.95M312.6 309l-3.5 1.35-3.45-1.5-1.3-3.55 1.5-3.4 3.5-1.35 3.45 1.5 1.35 3.5-1.55 3.45m-61 61.6-1.35 3.5-3.45 1.5-3.5-1.35-1.5-3.45 1.35-3.5 3.45-1.5 3.5 1.35 1.5 3.45m-103.2 17.75-2.8 2.5-3.75-.2-2.5-2.85.25-3.75 2.8-2.45 3.75.2 2.5 2.85-.25 3.7M28.85 315.1l-3.55 1.15-3.35-1.7L20.8 311l1.7-3.35 3.55-1.15 3.35 1.7 1.15 3.55-1.7 3.35M21.7 200.2h-3.75l-2.65-2.65.05-3.75 2.65-2.65h3.75l2.65 2.65v3.75l-2.7 2.65m32.2-94.9-3.15-2.1-.7-3.7 2.05-3.1 3.7-.75 3.1 2.1.75 3.7-2.1 3.1-3.65.75m85.7-82.2-1.6 3.35-3.55 1.3-3.4-1.6-1.25-3.55 1.6-3.4 3.55-1.25 3.4 1.6 1.25 3.55m115.85-.95-1.9-3.2.9-3.65 3.25-1.9 3.65.9 1.9 3.25-.95 3.65-3.2 1.9-3.65-.95M332.2 86.1l-2.8-2.5-.2-3.75 2.55-2.8 3.7-.2 2.8 2.5.2 3.75-2.5 2.8-3.75.2m-21.4 78.2h-3.75l-2.7-2.65v-3.75l2.65-2.65h3.75l2.65 2.65.05 3.75-2.65 2.65m-132.5 49.1v25.2h3.1v14.35h-10.75V238.6h3v-25.2h4.65m-77.45-36.8h-.65v-.65h.65v.65m-5.3 0h-.65v-.65h.65v.65m4.9-5.65h-.65v-.65h.65v.65m-5.3 0h-.65v-.65h.65v.65m6.45 28.7.15 8.35-3.55 3.9-2.55-.95-3.9 3.75 2 2.05-1.3 1.4-2.05-2.05-7.2 7v8.15l7.2 7 2.05-2.05 1.3 1.4-2 2.05 3.9 3.75 2.25-1 3.85 4.15-.15 8.15H52.4v-3.1h-2.85v-48.85h2.85v-3.1h49.2m65.75-96.8-5.2 6.5-5.25.7-1.35-2.35-5.4.35.2 2.9-1.9.15-.25-2.85-10 .75-5.2 6.25.95 9.95 2.9-.2.1 1.9-2.85.25.6 5.4 2.35.7.3 5.65-5.4 6.15L94.3 113.4l2-2.4-2.2-1.85 31.4-37.35 2.2 1.85 2-2.4 37.65 31.6m30 190.2 8.15.2v49.15h-3.15v2.9h-48.8v-2.9h-3.15v-49.15l8.4-.2 3.85 3.6-.9 2.55 3.75 3.85 2.05-2 1.35 1.35-2 2.05 7 7.15h8.1l7.05-7.15-2.05-2.05 1.4-1.35 2 2 3.8-3.85-1.05-2.25 4.2-3.9m-89.4-29.4.7 5.2-2.35 1.35.35 5.4 2.85-.2.2 1.9-2.85.25.75 10 6.2 5.2 10-.95-.25-2.85 1.95-.15.25 2.85 5.4-.55.65-2.4 5.7-.3 6.15 5.4L112 331.45l-2.4-2-1.85 2.2L70.4 300.3l1.85-2.2-2.4-2.05 31.6-37.65 6.5 5.25m139.1-10.25 7.15-3.95 24.6 42.6-2.75 1.55 1.45 2.5-42.25 24.4-1.45-2.5-2.7 1.55-24.6-42.6 7.15-4.3 5.15 1.15.45 2.7 5.2 1.45.8-2.75 1.85.45-.75 2.8 9.7 2.7 7-4.05 2.5-9.7-2.8-.8.55-1.8 2.75.7 1.3-5.25-2-1.45 1.7-5.4m-78.5-199.45h3.1v-2.9h48.8v2.9h3.15v49.2l-8.35.15-3.9-3.55.95-2.55-3.75-3.9-2.05 2-1.4-1.35 2.05-2.05-7.05-7.15H192l-7 7.15 2 2.05-1.35 1.35-2.05-2-3.75 3.9 1 2.25-4.15 3.85-8.15-.15v-49.2m85.35 8.35 2.55 1.8 1.65-2.35 40 28-1.65 2.35 2.55 1.8-28.2 40.3-6.95-4.7-1.15-5.1 2.25-1.6-.85-5.3-2.85.45-.35-1.9 2.85-.5-1.65-9.9-6.65-4.65-9.85 1.85.5 2.85-1.9.3-.55-2.8-5.3 1-.45 2.45-5.65.75-6.55-4.8 28.2-40.3" fill="#424242"/>
      <path d="M180.05 239.95H172v11.65h8.05v-11.65m27.8-51.5v23.8h13v-23.8h-13m27.85 23.8v-23.8h-12.85v23.8h12.85m0 4.45v-2.8h-27.85v2.8h27.85m0-29.8v-.65h-27.85v.65h27.85m-13.05-52.35v23.8h12.9v-23.8h-12.9m-15 23.8h13v-23.8h-13v23.8m0 1.6v.2h27.9v-.2h-27.9m0-30.2v3.2h27.9v-3.2h-27.9m-56.5 33.15h-2.75v48.65h2.75v2.85h49v-3h3v-48.75h-3v-2.7h-49v2.95m28.65-39.95h-8.15v11.6h8.15v-11.6m-9.15-1h10.15v13.6h-3.7v22.85h24.6v2.65h4.35v-32.9h31.1v33.6h-29.5v.9h-2.95v38.95h1.5v-16.9h31.15v13.2h6.15v-36.7h2.75v-3.05h31.65v1.6h-30.05v3h-2.75v48.9h2.9v3h30.05v1.55H246.4v-3h-2.9v-13.75h-6.15v18.8H206.2V203.2h-1.5v9.75h-3v3h-24.55v23h3.9v13.65H171v-13.65h3.65v-23h-25.1v-2.75h-2.7v-51.95h2.7v-2.85h25.05v-22.85h-3.95v-13.6m-55.75 50.5h1.5v19.45h-1.5v-19.45M346 59.8l-.55-1.2 18-8.5.55 1.15-8.35 3.95 9.1 19.8 8.3-3.95.55 1.2-18 8.5-.55-1.15 8.5-4.05-9.05-19.8-8.5 4.05" fill="#959595"/>
      <path d="M117.15 179.45h-1.05v-.9h1.05v.9m-24.7 38.2-2.55-2.5-7.7 7.55v8.95l7.7 7.55 2.5-2.5.9.9-2.5 2.5 8.95 8.75 1.25-1.25.45 1.35-.85.9v3.85H53.4v-3.1h-2.85v-46.85h2.85v-3.1h47.2v3.8l.85.9-.45 1.35-1.25-1.25-8.9 8.75 2.5 2.55-.9.9m73.5-114.7-2.45 2.95.05 1.2-1.2.8-.15-1.8-12.45 1 .3 3.55-1.3.1-.3-3.55-10.75.85-5.75 6.85 1.05 10.75 3.5-.3.1 1.25-3.5.35 1.2 12.4 1.8-.15-.55 1.35-1.2.1-2.5 3L95.7 113.3l2-2.4-2.2-1.85 30.1-35.85 2.2 1.85 2-2.4 36.15 30.3m34.7 191.3h3.85v47.15h-3.15v2.9h-46.8v-2.9h-3.15v-47.15h3.85l.9-.85 1.35.45-1.25 1.25L165 304l2.55-2.5.9.9-2.5 2.5 7.55 7.7h8.95l7.55-7.65-2.5-2.5.9-.95 2.5 2.5 8.75-8.9-1.25-1.25 1.35-.45.9.85m-99.1-34.45 2.95 2.45 1.2-.05.8 1.2-1.8.15 1 12.45 3.55-.3.1 1.3-3.55.3.85 10.75 6.85 5.75 10.75-1.05-.35-3.5 1.3-.1.3 3.5 12.45-1.2-.15-1.8 1.35.55.1 1.2 2.95 2.5-30.3 36.15-2.4-2-1.85 2.2-35.85-30.1 1.85-2.2-2.4-2 30.3-36.15m148.9-7.05 3.35-1.95 23.6 40.85-2.7 1.6 1.45 2.5-40.55 23.4-1.45-2.5-2.7 1.55-23.6-40.85 3.3-1.9.4-1.2 1.35-.3-.45 1.7L224.5 279l.95-3.45 1.25.35-.95 3.45 10.4 2.9 7.75-4.5 2.7-10.45-3.4-.9.3-1.25 3.45.9 3.1-12.05-1.75-.5 1-1.05 1.15.3m-77.8-197.8v-2.9h46.8v2.9h3.15v47.2h-3.85l-.85.8-1.4-.4 1.3-1.25-8.8-8.95-2.5 2.55-.95-.95 2.55-2.5-7.55-7.7h-8.95l-7.55 7.7 2.5 2.5-.95.9-2.5-2.5-8.75 8.9 1.3 1.3-1.4.4-.85-.8h-3.85v-47.2h3.1M256.7 65.5l1.65-2.35L296.7 90l-1.65 2.35 2.55 1.8-27.05 38.65-3.15-2.2-1.2.15-.85-1.1 1.75-.3L265 117l-3.5.6-.2-1.25 3.5-.65-1.8-10.65-7.3-5.1-10.6 1.95.6 3.5-1.25.2-.65-3.45-12.25 2.25.3 1.8-1.4-.45-.2-1.2-3.2-2.2 27.1-38.65 2.55 1.8" fill="#959595"/>
      <path d="M192.3 216.45v-.4h-5.45v.4h5.45m1.3-1.7v3h-8.05v-3h8.05m34.6 4.2v-.4h-5.45v.4h5.45m1.3-1.7v3h-8.05v-3h8.05M223.7 128h-5.45v.35h5.45V128m1.3-1.3v2.95h-8.05v-2.95H225m18.05 57.95v5.45h.35v-5.45h-.35m-1.3-1.3h2.95v8.05h-2.95v-8.05m-76.6 32.7h-5.45v.4h5.45v-.4m1.3-1.3v3h-8.05v-3h8.05m16-56.9v.4h5.45v-.4h-5.45m-1.3 1.7v-3h8.05v3h-8.05m-20.4-1.8h-5.45v.4h5.45v-.4m1.3-1.3v3H154v-3h8.05m-44.2 23h-.9v-.9h.9v.9M97 182.35h-1.05v-.95H97v.95m-28.85 2.5H67.1v-.95h1.05v.95m17-25.1v1.35h-.95v-1.35h.95M355.2 54l-1.65.7-.4-.85 1.65-.75.4.9M208.15 188.2h-.7v-1.1h.7v1.1m0 25.45h-.7v-1.1h.7v1.1m-.2-79.4h-.7v-1.1h.7v1.1m0 25.45h-.7v-1.05h.7v1.05M101.7 246.95l-3.85-3.85-.25.25 3.85 3.85.25-.25m1.85 0-2.1 2.1-5.7-5.7 2.1-2.1 5.7 5.7m-1.85-39.5-.25-.25-3.85 3.85.25.25 3.85-3.85m1.85 0-5.7 5.7-2.1-2.1 5.7-5.7 2.1 2.1m33.5-68.3-.5-5.45-.35.05.45 5.45.4-.05m1.4 1.2-2.95.25-.7-8 2.95-.3.7 8.05m23.95-31.45v-.35l-5.45.45.05.35 5.4-.45m1.45 1.2-8.05.7-.25-3 8-.7.3 3m33.85 183.05-3.8 3.85.25.25 3.85-3.85-.3-.25m0-1.85 2.1 2.1-5.65 5.7-2.1-2.1 5.65-5.7m-39.45 1.85-.25.25 3.8 3.85.3-.25-3.85-3.85m0-1.85 5.65 5.7-2.1 2.1-5.65-5.7 2.1-2.1m-20.5-2.6-5.45.5.05.35 5.4-.45v-.4m1.15-1.4.3 2.95-8.05.7-.25-2.95 8-.7m-31.4-23.95h-.4l.5 5.45.35-.05-.45-5.4m-1.1 6.85-.7-8 2.95-.25.7 8-2.95.25m141-16.95-1.4 5.25.35.1 1.4-5.25-.35-.1m-.9-1.6 2.85.75-2.05 7.8-2.9-.8 2.1-7.75M213.2 273l-.1.35 5.25 1.4.1-.35-5.25-1.4m6.85.45-.75 2.9-7.75-2.1.75-2.85 7.75 2.05m-43.75-170.2 3.85-3.85-.25-.3-3.85 3.85.25.3m0 1.8-2.1-2.1 5.7-5.65 2.1 2.1-5.7 5.65m39.5-1.8.25-.3-3.85-3.85-.25.3 3.85 3.85m0 1.8-5.7-5.65 2.1-2.1 5.7 5.65-2.1 2.1m16.2 2.1 5.35-.95-.05-.4-5.4.95.1.4m-1.05 1.5-.55-2.95 7.95-1.4.5 2.95-7.9 1.4m32.8 15.7-.35.05.95 5.4.35-.1-.95-5.35m-1.85-1 2.9-.5 1.4 7.9-2.9.55-1.4-7.95" fill="#ffffff"/>
      <path d="m132.85 242.25 8.1-9.7.65.55-8.1 9.7-.65-.55m69.05 11.05.35.75-11.65 6.1-.4-.75 11.7-6.1m25.95-11.4-2.8 1.3-1.55-3.35 2.8-1.25 1.55 3.3m.75 1.35 1.55 3.3-2.75 1.3-1.6-3.35 2.8-1.25m-117.3-79.3 1.95-.1.05 1.15-1.95.1-.05-1.15m-5 3.55-.05-1.2 1.95-.05.05 1.15-1.95.1m4.5-3.2.4.95-.95.4-.4-.9.95-.45m-20.7 18.4-.25-.3v-.35l.25-.35.35-.1.35.1.25.3v.4l-.2.3-.4.15-.35-.15m-1.1-5.8.4.1.2.3.05.4-.25.3-.35.15-.4-.15-.2-.3-.05-.35.25-.35.35-.1m-4.25-1.9-.25-.3v-.35l.2-.35.4-.1.35.1.25.3v.4l-.25.3q-.15.1-.35.15l-.35-.15m-2.05 6.3.45.1.3.4v.5l-.3.4-.45.15-.45-.15-.3-.4v-.45l.25-.4.5-.15m-2.7-7.45.4-.15.35.15.25.3v.35l-.25.35-.35.1-.35-.1-.25-.3v-.4l.2-.3m-3.5 2.75.2.3v.4l-.2.3-.35.15-.4-.15-.2-.3v-.35l.2-.35.35-.1.4.1m-2 4.6.35.1.25.3v.4l-.25.3-.35.15-.35-.15-.25-.3v-.35l.2-.35.4-.1m1.8 4.8.2.3.05.4-.25.3-.35.15-.4-.15-.2-.3v-.35l.2-.35.35-.1.4.1m2.9 3.35.2-.35.4-.1.35.1.25.3v.4l-.25.3-.35.15-.35-.15-.25-.3v-.35m5.1-.2.4-.15.35.15.25.3v.35l-.25.35-.35.1-.35-.1-.25-.3v-.4l.2-.3m4.15-1.7-.2-.3-.05-.4.25-.3.35-.15.4.15.2.3v.35l-.2.35-.35.1-.4-.1m13.55.3h-1.3v-1.95h1.3v1.95M91.25 156.4v2.9H89.8v-2.9h1.45m0-21.25v2.9h-1.5v-2.9h1.5m-17.75 53.3v2h-1.3v-2h1.3m99.35 92.25-2.55 2.85-2.45-2.2 2.55-2.85 2.45 2.2m2.1-2.45-2.45-2.2 2.55-2.85 2.45 2.2-2.55 2.85m.55-5.6 2.55-2.85 2.45 2.2-2.55 2.85-2.45-2.2m-11.95-18-2.45-2.2 2.55-2.85 2.45 2.2-2.55 2.85m-4 4.75-2.55 2.85-2.45-2.2 2.55-2.85 2.45 2.2m-8.9 5.7 2.45 2.2-2.55 2.8-2.45-2.2 2.55-2.8m-25.85-7.65 1.45 1.35-.45.5-1.45-1.35.45-.5m5.75-7.2.3.25-2.65 3.25-.35-.3 2.7-3.2m-1.75 6.35.6.5-1.05 1.3-.6-.5 1.05-1.3m2.6-12.9.6.5-1.1 1.25-.6-.45 1.1-1.3m-16.55-9.45-1.2 1.2-.9-.95 1.2-1.2.9.95m3.75.35-1.2 1.2-.95-.95 1.2-1.2.95.95m-2.25-4.15.95.95-1.2 1.2-.95-.95 1.2-1.2m2-.2-.95-.95 1.2-1.2.95.95-1.2 1.2m2.75 1.6-1.2 1.15-.95-.9 1.2-1.2.95.95m21.95-4.6 1.2-1.2.95.95-1.2 1.15-.95-.9m2.85 2.5 1.2-1.2.95.95-1.2 1.15-.95-.9m5.05 2.65-1.2 1.15-.95-.9 1.2-1.2.95.95m1.55-1.9-.9-.95 1.15-1.2.95.95-1.2 1.2m-1.5-3.8-1.2 1.15-.95-.9 1.2-1.2.95.95m5.9 0-1.2 1.15-.95-.9 1.2-1.2.95.95m33.25-.3v1.35h-1.7v-1.35h1.7m-19.9.55v-.5h1.65v.5h-1.65m20.6 4.2.05-1.3h1.65v1.3h-1.7m1.35-2.5v-.1h-.05v-1.35h1.7v.15h.05v1.3h-1.7m3.75-1.8h1.65v1.35h-1.7l.05-1.35m3.65-.95h1.65v1.3h-1.7l.05-1.3m-76.15 3.55-1.2 1.15-.95-.9 1.2-1.2.95.95m10 22.35 2.9-3.5.35.3-2.9 3.5-.35-.3m-11.8 2.7-.45.5-1.55-1.4.45-.5 1.55 1.4m-2.65-2.9-1.15 1.25-.55-.5 1.15-1.25.55.5m-2.2 2.4-.8.85-.55-.5.8-.85.55.5m7.3-2.55-.45.5-1.55-1.35.45-.5 1.55 1.35m.65-3.75.45-.5 1.55 1.35-.45.5-1.55-1.35m4.1-1.95-.45.5q-.75-.65-1.55-1.35l.45-.5 1.55 1.35m-9.7-18.8v-.6h1.6v.6h-1.6m34.95-77.75v1.75h-2.75v-1.75h2.75m7.4-1.2v.9h-1.35v-.9h1.35m21.7 2.9v-1.75h2.75v1.75h-2.75m8.2-46.7v1.75h-2.75v-1.75h2.75m7.95 1.75v-1.75h2.75v1.75h-2.75m-9.7 42.1v.9h-1.35v-.9h1.35m-17.3.9.05 1.1-1.95.2-.1-1.1 2-.2M139.45 193l.15 1.2-1.9.2-.15-1.2 1.9-.2m4.2-1.75 1.9-.05v1.1h-1.9v-1.05m-2.55.5.75-.3.3.85-.75.3-.3-.85m-64.2 11.5v-.55h2.95v1.8H76.9v-.7h-2.45v9.15h.2v2.2h.6v2.45h6.25v-.95h1.8v2.8h-1.8v-1.15h-1.4v1.75h-2.25v1h-1.9v-1.75h1.9v.05h1.55v-1.05h-4.15v4.1h.2v5.2h-.2v-1.9h-4.4v-.9h4.4v-1.45h-2.3v-8.2h.75v-2.2h.15v-1.4H73V213h-2.3v-3.45H73v1.6h.85v-7.65l.4-.25h2.65m11.1 37v3.45h-2.3v-.45h-1.25v1.9h-2.4v.7h-1.8v-1.65h1.8v.25h1.7v-1.2H79.6v.75h-3.15v-.45H74.5v1.3h.25v6.65H73.7v-6.65h.1v-5.5h-.85v-8.2h2.3v8.2h-.75v3.5h1.95v-1.15h3.15v.85h6.1v-2.3H88m-29.95.2v-1.15H56.5v1.15h1.55m-2.25.7v-1.8h-1.35v2.55h-2.3v-3.45h2.3v.2l4.7-.05v-.15h1.8v-2.4h4.85v3.8h-4.85v-.35h-1v1.65H55.8m11.05-9.05v1.3l6.05-.05v.7h-4.15v1.15h1.75v-.6h1.7v2.8h-1.7v-1.5h-2.45v-1.8h-1.2v.35H63.4v-2.35h3.45m2.6-19.4v1.7H65v-.8h-2.45v9.4h.25v1.85h6.5v2.35h-7.95v-.7h-.85v1.8h1.4v1.7h-2.8v-1.7h.7v-1.8h-.7v-.1h-5.35l-.55-.65v-1.6h.7v1.35l.15.2h5.05v-.25h2.25v-.6h.4V223h.1v-1.6H60v.95h-1.9v-1.75H60v.1h1.85v-7.8H65v-.2h4.45" fill="#6f6f6f"/>
      <path d="M63.3 217.2v-1.9h1.75v1.9H63.3m-3.75 36.6V252h2.95v1.8h-2.95m22.4.05v-1.8h2.9v1.8h-2.9m-29.8-21.55v2.85h-1.9v-2.85h1.9m10.35-31.7v1.8h-2.95v-1.8h2.95m-10.35 9.35v2.85h-1.9v-2.85h1.9m37.1 37.85.4.15.2.3v.45l-.2.3-.4.1-.4-.1-.2-.3v-.45l.2-.3.4-.15m-31.5-.1.4.15.2.3v.45l-.2.3-.4.1-.4-.1-.2-.3v-.45l.2-.3.4-.15m31.5-40.1.4.15.2.3v.45l-.2.3-.4.1-.4-.1-.2-.3v-.45l.2-.3.4-.15m-32 .15.4-.15.4.15.2.3v.45l-.2.3-.4.1-.4-.1-.2-.3v-.45l.2-.3m19.6 14.65h.2v2.45H78l.05-.1.1-.05v-.3h.7v.05h3.6v.9h-2.3l.05.1v.85l-.5.7-.25.1v.65h.45v2.85H78v-2.85h.8v-.5l-.75-.25-.5-.7v-.55h-.5v1.85h-.2v-5.2m-8.75-1.6v1.8h-2.8v-1.8h2.8m40.4-115.55-1.2-1-.7.85 1.2 1 .7-.85m1.3.15.1-.1 1.4 1.15 1.55-1.85 3.7 3.15-2.45 2.9-3.7-3.15.2-.25-.75-.6-1.05 1.25-3.2-2.7 1.2-1.4-1.05-.85-1.65 1.95-1.75-1.45 2.2-2.65 1.8 1.45-.15.2 3.6 2.95m10.75 10-.65-.55 5.25-6.25 1.75 1.5-5.25 6.25-.55-.5-2.25 2.7 1.5 1.25.75-.9 2.4 2.05-.55.65 4.65 3.9 1.5-1.75 1.75 1.5-2.2 2.65-1.8-1.5.3-.35-.95-.8-1.2 1.45-1.85-1.55-.45.55-1.35-1.15 1.05-1.3 1.35 1.15-.15.2 1.3 1.1.8-.9-3.2-2.7-.5.6-2.4-2.05.3-.35-1.5-1.25-.85 1 .2.15-4.25 5.1-.8-.65 4.25-5.1.1.05 3.5-4.2m-3.3-12.2 2.65 2.2-.85.95 4.7 3.85-.45.55-3.2-2.65-.75.9 1.35 1.1.4-.45 1.3 1.1-1.8 2.15-1.3-1.1.95-1.15-1.85-1.6 1.15-1.4-.95-.75-.2.3-2.65-2.25 1.5-1.75m11.15-15.75 2.4 2.05.15-.15 3.4 2.85-1.1 1.3-3.4-2.85.55-.65-1.9-1.55-6.05 7.2.2.15-1.2 1.45 4.95 4.15-1.5 1.8-6.1-5.1.45-.55-.65-.5-1.1 1.35 1.05.9-1.1 1.3-2.15-1.8 1.1-1.3.55.45 1.15-1.35-.55-.5.05-.1-4.1-3.4v-.85l1.05-1.25.55.45-.9 1.05v.25l3.85 3.25.15-.2 1.75 1.45.4-.45.3.25 1.2-1.4.05.05 1.05-1.25-1.4-1.15-.65.7-1.45-1.2 1.15-1.35 1.45 1.2-.05.1 1.4 1.2 5-6" fill="#6f6f6f"/>
      <path d="m127.95 90.25 1.35 1.1-1.25 1.45-1.35-1.1 1.25-1.45m-24.2 27.6-1.15 1.4-2.25-1.9 1.15-1.4 2.25 1.9m45-26.65-1.15 1.4-2.3-1.9.45-.55-1.85-1.55-5.9 7 .15.15-1.4 1.65.45.4-1.5 1.9 4.75 4 .6-.75 1.4 1.15-1.8 2.15-1.4-1.15.75-.85-1.1-.9-1.1 1.3-1.75-1.45-.6.8-1.5-1.25 1.15-1.35 1.45 1.25-.05.05 1.2 1 .7-.8-3.2-2.7-2.65 3.15.15.1-3.35 4-.15-.1 1.25-1.45-3.35-2.85.55-.7 3.4 2.85.9-1.15-1.75-1.45 5.25-6.25.55.45 1.45-1.7.1.1.9-1.05-.65-.55-.9 1.1-1.8-1.5 2.2-2.65 1.8 1.5-1.05 1.2.7.6 4.9-5.85.45.05 2 1.65.35-.4 2.3 1.9m-30.1 39.15 2.2 1.9-1.15 1.35-2.2-1.85 1.15-1.4M108.5 96.1l-1.8 2.15-1.5-1.2 1.85-2.2 1.45 1.25m28.3-17.65-1.15 1.4-2.25-1.9 1.15-1.4 2.25 1.9m-13.95.55-1.8 2.15-1.5-1.2 1.85-2.2 1.45 1.25" fill="#6f6f6f"/>
      <path d="m133.8 104.4.15.1-1.6 1.85.75.65.1-.05.1.05.2-.25.55.45-.05.05 2.75 2.3-.6.7-1.75-1.5v.1l-.55.7-.85.2-.25-.1-.4.5.35.3-1.85 2.15-1.45-1.2 1.85-2.2.6.55.3-.4-.4-.65.05-.9.35-.4-.4-.3-1.2 1.4-.1-.1 3.35-4m-6.65 27.75-.05.4-.25.3-.4.1-.35-.15-.2-.3v-.4l.25-.35.4-.1.4.15.2.35m-25.3-20.4.25-.3.4-.1.35.15.25.35-.05.4-.25.3-.4.1-.35-.15-.25-.35.05-.4m50.85-9.65-.4.05-.35-.15-.2-.3v-.4l.25-.35.4-.05.4.15.2.3-.05.4-.25.35m-24.15-21.4.25.35-.05.4-.25.3-.4.1-.35-.15-.25-.35.05-.4.25-.3.4-.1.35.15M126 95.75l2.1 1.8-1.15 1.35-2.15-1.8 1.2-1.35m28.3 225.2-.25-.4v-2.6h-.55V315h1.8v2.95h-.7v2.45h9.15v-.2h2.2v-.65h2.45v-6.25h-1v-1.8h2.8v1.8h-1.1v1.4h1.75v2.25h1v1.95h-1.75v-1.95h.05v-1.5h-1.05v4.1h4.05v-.15h5.25v.2h-1.95v4.35h-.85v-4.35h-1.45v2.3h-8.2v-.75h-2.2v-.2h-1.4v.9h1.4v2.3h-3.45v-2.3h1.6v-.9h-7.6m29.85 1 .7-.05v4.15h1.1v-1.75h-.55v-1.65h2.75v1.65h-1.5v2.45h-1.8v1.2h.35v3.5h-2.3v-3.5h1.25v-6m-5.05 12.35v-1.35h1.7v2.75h-1.7v-.7h-1.8v.75h-.15v5.35l-.6.55h-1.65v-.7h1.4l.15-.2v-5h-.2v-2.3h-.6v-.4h-1.85v-.1h-1.65v1.85h1v1.9h-1.75v-1.9h.05v-1.85h-7.8v-3.15h-.2v-4.4h1.7v4.4h-.75v2.45h9.4V332h1.85v-6.5H178v7.95h-.7v.85h1.8m12.1 2.45h-1.1v1.55h1.1v-1.55m-4.35-2.85V329h3.8v4.9h-.35v1h1.6v4.1h-1.8v1.35h2.55v2.35h-3.45v-2.35h.2v-4.65h-.15v-1.8h-2.4m6.5-24.75h-2.3v-2.35h3.45v2.35h-.45v1.25h1.85v2.35h.75v1.8h-1.7v-1.8h.25v-1.7h-1.15v4.15h.75v3.2h-.45v1.9h1.3v-.25h6.65v1.1h-6.65V321h-5.5v.9h-8.2v-2.35h8.2v.75h3.5v-1.9h-1.2v-3.2h.9v-6.05" fill="#6f6f6f"/>
      <path d="M168 331.55h-1.9v-1.75h1.9v1.75m34.8 3.7v-2.95h1.8v2.95h-1.8m.05-22.35v-2.95h1.8v2.95h-1.8m-19.75 31.65v-1.85h2.8v1.85h-2.8m-31.7-9.3v-2.95h1.75v2.95h-1.75m9.35 9.3v-1.85h2.85v1.85h-2.85m15.5-29.9h.85l.7.5.1.25h.65v-.45h2.85v1.85h-2.85v-.8h-.5l-.25.8-.7.5h-.55v.5h1.85v.2h-5.25v-.2h2.5v-.95l-.1-.05-.05-.1h-.35v-.75h.05v-3.55h.95v2.3l.1-.05m22.8-9.7h.4l.35.25.1.4-.1.35-.35.25h-.4l-.3-.25-.15-.35.15-.4.3-.25m-.4 31.75.3-.25h.4l.35.25.1.4-.1.35-.35.25h-.4l-.3-.25-.15-.35.15-.4m-39.8-31.75h.4l.35.25.1.4-.1.35-.35.25h-.4l-.3-.25-.15-.35.15-.4.3-.25m.4 31.6.35.25.1.4-.1.35-.35.25h-.4l-.3-.25-.15-.35.15-.4.3-.25h.4m14.15-7.05h-1.8v-2.8h1.8v2.8m-49.55-34.6 2.65 2.2-1.5 1.8-.35-.3-.8.95 1.45 1.2-1.55 1.85.55.45-1.2 1.4-1.25-1.1L123 302l.2.15 1.1-1.3-.9-.75-2.7 3.15.6.5-2.05 2.4-.35-.3-1.25 1.5 1 .85.15-.2 5.1 4.3-.65.8-5.1-4.3.05-.05-4.2-3.55-.55.65-6.25-5.25 1.45-1.75 6.3 5.25-.5.55 2.7 2.25 1.25-1.5-.9-.75 2-2.4.65.55 3.95-4.65-1.75-1.45 1.5-1.8m-20 22.35-1 1.2.85.7 1-1.2-.85-.7m2.25-1.9-.25-.2-.6.75 1.2 1.05-1.05 1.3-.15.15-1.45 1.75-1.4-1.2-.85 1.05 1.95 1.65-1.5 1.75-2.6-2.2 1.45-1.75.15.1 3-3.6-.1-.1 1.15-1.4-1.85-1.55 3.15-3.7 2.9 2.45-3.15 3.7m2.7-13.3.55.4-2.65 3.25.85.7 1.15-1.35-.45-.4 1.1-1.3 2.1 1.8-1.05 1.3-1.15-.95-1.6 1.9-1.4-1.2-.75.95.25.2-2.2 2.65-1.75-1.5 2.2-2.6.95.8 3.85-4.65m-20.7-7.1-.2-.15 2.9-3.4 1.3 1.1-2.85 3.4-.65-.5-1.55 1.85 7.2 6.05.15-.2 1.45 1.2 4.15-4.95 1.8 1.5-5.1 6.1-.55-.45-.55.65 1.4 1.15.9-1.1 1.3 1.1-1.8 2.15-1.3-1.1.45-.55-1.4-1.15-.45.6-.1-.1-3.4 4.1h-.85l-1.25-1.05.45-.55 1.05.9h.25l3.2-3.85-.15-.15 1.45-1.75-.45-.35.25-.35-1.45-1.2.1-.05-1.25-1.05-1.2 1.45.75.6-1.2 1.45-1.35-1.15 1.2-1.45.1.1 1.2-1.45-6-5 2.05-2.4" fill="#6f6f6f"/>
      <path d="m90.3 299.05-1.45-1.25 1.1-1.35 1.45 1.25-1.1 1.35m27.5 24.1-1.9 2.25-1.35-1.15 1.9-2.25 1.35 1.15m-15.5-37.85-.75-.6 1.15-1.4 2.15 1.8-1.15 1.4-.85-.75-.9 1.1 1.3 1.1-1.45 1.75.8.65-1.25 1.45-1.35-1.15 1.25-1.45.05.05.95-1.2-.75-.65-2.7 3.15 3.15 2.65.1-.15 4 3.35-.1.15-1.5-1.25-2.8 3.4-.7-.6 2.85-3.35-1.15-.95-1.45 1.75-6.25-5.25.45-.55-1.7-1.45.1-.1-1.05-.9-.55.65 1.1.95-1.5 1.75-2.65-2.2 1.5-1.8 1.2 1.05.55-.65-5.8-4.95.05-.45 1.65-2-.4-.35 1.9-2.25 1.4 1.15-1.9 2.25-.55-.45-1.6 1.9 7.05 5.85.1-.15L96 289l.4-.45 1.85 1.55 4.05-4.8m26.65 21.8 1.9-2.2 1.35 1.15-1.85 2.2-1.4-1.15m-35.5 11.6 1.25-1.45 2.15 1.85-1.2 1.45-2.2-1.85m-15-28.6-1.9 2.25-1.4-1.15 1.9-2.25 1.4 1.15m-2.1 14.25 1.25-1.45 2.15 1.85-1.2 1.45-2.2-1.85" fill="#6f6f6f"/>
      <path d="m108.15 289 .7.6-1.5 1.75.1.05.7.55.2.8-.1.25.5.4.3-.35 2.15 1.85-1.2 1.45-2.2-1.85.5-.6-.35-.3-.65.45-.9-.1-.4-.35-.35.4 1.45 1.2-.15.1-4-3.35.15-.1 1.85 1.55.6-.7v-.1l.05-.15-.25-.2.45-.55.05.05 2.3-2.75m23 9.65.3.25.1.4-.15.35-.35.2h-.4l-.3-.25-.1-.4.15-.4.35-.2.4.05m-20.3 24.05.3.25.1.4-.15.35-.35.25-.4-.05-.3-.25-.1-.4.15-.35.35-.25.4.05m-10.9-49.95.4.05.3.25.1.4-.15.35-.3.25-.4-.05-.35-.25-.1-.4.15-.35.35-.25M80.05 297l.3.25.1.4-.15.35-.35.25-.4-.05-.3-.25-.1-.4.15-.35.35-.25.4.05m15.65 3.95-1.4-1.15 1.8-2.15 1.4 1.15-1.8 2.15m154.35-16 .6-.35 2.1 3.6q.5-.25.95-.55l-.85-1.55-.55.3-.85-1.45 2.45-1.4.85 1.45-1.3.75 1.2 2.15-1.55.9.6 1.05.3-.2 1.75 3-2.05 1.15-1.7-3 1.1-.6-3.05-5.25m-26.35 14.1-.4-.2-1.35-2.25-.45.25-1.45-2.55 1.55-.9 1.45 2.55-.6.35 1.25 2.1 7.9-4.55-.1-.2 1.95-1.1-.35-.55 2.4-1.35-.3.15-3.1-5.4-.85.45-.9-1.55 2.45-1.4.9 1.55-1 .6.7 1.2 1.5-.85 1.15 1.95.85-.5.95 1.65-1.5.85-.95-1.65h.05l-.8-1.35-.9.5 2.05 3.6 3.55-2.05-.05-.15 4.5-2.6.1.15-1.65.95 2.15 3.8-.75.45-2.2-3.8q-.6.4-1.25.75l1.15 2-7.1 4.05-.35-.65-1.9 1.15-.1-.15-1.2.7.45.75 1.2-.75 1.15 2.05-3 1.7-1.15-2 1.4-.8-.45-.75-6.6 3.8m38.9-4.2.8 1.35.95-.6-.75-1.3-1 .55m-4.25-.9-2.45-4.2 3.3-1.9 2.45 4.2-.3.2.5.85 1.4-.8 2.1 3.6-1.6.9.7 1.15 2.2-1.3 1.15 2-3 1.75-1.15-2 .2-.1-2.4-4.05-.1.1-.9-1.6-2.1 1.2m-7.2 3.05 1.45-.85 1.4 2.45-1.45.85-.35-.6-1.55.9.4.6-.15.05 2.7 4.65-.3.75-1.4.85-.35-.65 1.2-.65.05-.25-2.5-4.35-.2.15-1.1-2-.55.3-.2-.35-1.6.95-.05-.1-1.4.8.95 1.6.8-.45.95 1.65-1.5.85-.95-1.65.05-.05-.9-1.6-6.75 3.9-1.6-2.7-.15.1-2.25-3.85 1.5-.85 2.2 3.85-.7.4 1.25 2.1 8.15-4.7-.15-.2 1.65-.95-3.25-5.65 2-1.15 4 6.9-.6.35.4.7 1.55-.85-.7-1.25m.45-27.7-1.95 1.15-1.2-2.05 3-1.7 1.15 2-.4.25.6 1.05 1.65-.95 1.2 2.1.65-.35.9 1.55-1.45.85-.9-1.6.2-.1-.85-1.5-1.05.6 2.1 3.6.65-.35 1.55 2.7-.35.25.95 1.7 1.15-.65-.15-.25 5.75-3.3.55.9-5.75 3.35-.05-.1-4.8 2.75.45.75-7.1 4.05-1.15-2 7.1-4.05.35.65 3.05-1.75-.95-1.7-1 .55-1.6-2.7.75-.45-3.05-5.25" fill="#6f6f6f"/>
      <path d="m239.25 302.3-.9-1.5q.85-.45 1.65-.95l.85 1.5-1.6.95m32.15-17.65 1.55-.9 1.5 2.55-1.6.9-1.45-2.55m-9.6-20.3 1.45 2.55-1.55.9-1.45-2.55 1.55-.9m-2.3 39.1 2.45-1.4.95 1.65-2.45 1.4-.95-1.65m-31.1 6 1.5 2.55-1.55.9-1.5-2.55 1.55-.9m11.75 5.2 2.5-1.45.95 1.65-2.5 1.4-.95-1.6m14.25-51.05-.1-.4.2-.4.35-.2.4.05.3.3.05.35-.15.4-.35.2-.4-.05-.3-.25m16.7 27.4-.35.2h-.4l-.3-.3-.05-.4.15-.35.35-.2.4.05.3.25.05.4-.15.35m-50.8-7-.4-.05-.3-.25-.1-.4.15-.4.35-.2.4.05.3.3.1.35-.15.4-.35.2m15.9 26.15.3.25.1.4-.15.35-.35.2-.4-.05-.3-.25-.1-.4.15-.35.35-.2.4.05m5.7-28.05-.2-.4 2.45-1.4.95 1.65-2.45 1.4-.4-.7-.45.25.2.8-.35.75-.5.3.25.45 1.6-.95.1.15-4.55 2.6-.05-.15 2.1-1.2-.45-.85h-.1l-.1-.05-.3.15-.35-.6.05-.05-1.8-3.1.8-.45 1.15 2 .05-.1.75-.45.85.1.2.15.55-.3m-.35 13.3 1.55-.9 1.4 2.45-1.55.85-1.4-2.4m-55.7-221.65v-1.7h1.5V69.6h1.8v-1.2h-.35v-3.45h2.3v3.45h-1.25l.05 6.05h-.7l-.05-4.15h-1.1v1.75h.6v1.7h-2.8m13.25-19v.7h-1.4l-.15.15v5h.2v2.3h.6v.4h1.9v.1h1.6v-1.85h-.95v-1.9h1.75v1.9h-.1v1.85h7.8v3.15h.2V71h-1.7v-4.45h.8V64.1h-9.4v.25h-1.9v6.5H196V62.9h.7v-.85h-1.75v1.4h-1.7v-2.8h1.7v.7h1.75v-.75h.15v-5.3l.6-.55h1.65m-15.2 3.3h-1.1v1.55h1.1v-1.55m.9-4.35V56h-.2l.05 4.65h.1v1.85h2.45v4.85h-3.8V62.5h.3v-1h-1.6v-4.15h1.8V56h-2.55v-2.3h3.45m-.9 20.8h8.15v2.3h-8.15v-.75h-3.5V78h1.15v3.15h-.85v6.1h2.25v2.3h-3.45v-2.3h.5V86h-1.9v-2.4h-.7v-1.8h1.65v1.8h-.25v1.7h1.2v-4.15h-.75V78h.45v-1.95h-1.3v.25h-6.65v-1.05h6.65v.1h5.5v-.85" fill="#6f6f6f"/>
      <path d="M207.9 66.55H206V64.8h1.9v1.75m-36.7-5.45v2.95h-1.8V61.1h1.8m26.35 11.3h.9v4.4h1.45v-2.3h8.15v.75h2.25v.15h1.35v-.85h-1.4V72.2h3.45v2.35h-1.6v.85h7.65l.25.4v2.6h.55v2.95h-1.8V78.4h.7v-2.45h-9.15v.25h-2.25v.6h-2.4v6.25h.95v1.8h-2.8v-1.8h1.15v-1.4h-1.75V79.4h-1v-1.9h1.75v1.9h-.05v1.55h1.05V76.8h-4.1v.15h-5.25v-.15h1.95v-4.4M171.2 83.5v2.9h-1.8v-2.9h1.8m19.75-31.7v1.9h-2.85v-1.9h2.85m31.7 9.3v2.95h-1.8V61.1h1.8m-9.4-9.3v1.9h-2.85v-1.9h2.85" fill="#6f6f6f"/>
      <path d="M200.85 78.4v.15h-2.45v.95l.1.1v.1h.35v.7h-.05V84h-.95v-2.35l-.05.1h-.9l-.7-.5-.05-.25h-.65v.45h-2.85v-1.9h2.85v.8h.45l.25-.75.7-.55h.55v-.5h-1.85v-.15h5.25m-26.6 12 .3-.25h.4l.35.25.1.4-.1.35-.35.25h-.4l-.3-.25-.15-.35.15-.4m.8-31.75.35.25.1.4-.1.35-.35.25h-.4l-.3-.25-.15-.35.15-.4.3-.25h.4m39.4 31.75.3-.25h.4q.2.15.35.25l.1.4-.1.35-.35.25h-.4l-.3-.25-.15-.35.15-.4m1.05-31.6.1.4-.1.35-.35.25h-.4l-.3-.25-.15-.35.15-.4.3-.25h.4q.2.15.35.25m-13.05 10.85h-1.8v-2.8h1.8v2.8m47.9 17.15-1.05-.75-.15.2-5.45-3.8.6-.85 5.45 3.8-.05.1 4.5 3.15.5-.7 6.7 4.7-1.35 1.85-6.7-4.65.45-.65-2.85-2-1.15 1.6.95.65-1.8 2.6-.7-.5-3.5 5 1.9 1.3-1.35 1.9-2.85-2 1.35-1.85.4.25.7-1-1.55-1.1 1.35-1.95-.55-.4 1.05-1.5 1.35.95-1.05 1.45-.2-.1-1 1.35 1 .7 2.4-3.4-.65-.4 1.85-2.6.35.25 1.1-1.6m13.8-12.3-.9-.65-.9 1.25.9.65.9-1.25m1.9-1.2-.15-.1-2.65 3.85.1.1-1.05 1.45 2 1.4-2.8 4-3.1-2.2 2.75-3.95.3.15.55-.8-1.35-.95 2.4-3.4 1.5 1.05.75-1.1-2.1-1.45 1.35-1.9 2.8 2-1.3 1.85m-5.7 12.6 1.45 1.05.7-1-.3-.2 2-2.8 1.9 1.3-2 2.85-1.05-.75-3.4 5-.6-.4 2.35-3.4-.9-.65-1 1.4.5.35-1 1.4-2.3-1.6 1-1.4 1.2.85 1.45-2m15.95-6.25.85-.1 1.3.95-.4.55-1.1-.75h-.25l-2.85 4.1.15.15-1.3 1.85.5.35-.25.35 1.55 1.05-.05.1 1.3.9 1.05-1.5-.75-.55 1.1-1.55 1.4 1-1.05 1.55-.1-.05-1.05 1.5 6.35 4.5-1.8 2.55.2.1-2.55 3.65-1.4-.95 2.55-3.65.65.45 1.4-2-7.7-5.4-.15.2-1.55-1.05-3.7 5.3-1.95-1.35 4.6-6.5.55.4.5-.7-1.45-1-.8 1.15-1.4-1 1.6-2.3 1.4 1-.4.55 1.45 1.05.4-.6.1.05 3.05-4.35" fill="#6f6f6f"/>
      <path d="m278.35 92.7 1.55 1.1-1 1.45-1.55-1.1 1-1.45M252 69.7l-1.7 2.4-1.45-1 1.65-2.45 1.5 1.05m-12.85 18.35-1.7 2.35-1.45-1 1.65-2.4 1.5 1.05m30.9-14.75 1.1-1.55 2.35 1.65-1.1 1.55-2.35-1.65m22.6 24.85 1.45 1.05-1.65 2.4-1.5-1 1.7-2.45m-3.2-13.6 2.3 1.65-1.05 1.55-2.35-1.6 1.1-1.6m-51.35 12.1h-.4l-.35-.2-.15-.4.15-.35.3-.25h.4l.35.2.1.4-.1.4-.3.2m18.1-26.95.35.2.1.4-.1.4-.3.2-.4.05-.35-.25-.15-.4.15-.35.3-.25h.4m15.1 49 .15.4-.1.4-.35.2-.4.05-.3-.25-.15-.4.1-.35.35-.25h.4l.3.2m17.8-26.1.35.25.1.35-.1.4-.3.25h-.4l-.35-.25-.15-.35.15-.4.3-.25h.4m-5.55 16.65-.05.45-1.5 2.15.45.35-1.7 2.4-1.45-1.05 1.7-2.4.55.4 1.4-2-7.5-5.25-.1.15-1.85-1.25-.35.5-1.95-1.4-3.6 5.1.8.55-1.05 1.5-2.3-1.6 1.05-1.5.9.65.8-1.15-1.4-.95 1.3-1.85-.85-.6 1.1-1.55 1.45 1-1.1 1.55h-.05l-.85 1.25.85.6 2.35-3.4-3.35-2.35-.1.15-4.25-3 .1-.15 1.55 1.1 2.55-3.6.7.5-2.5 3.65 1.2.8 1.3-1.85 6.7 4.65-.45.6 1.85 1.3-.1.1 1.1.8.5-.7-1.15-.8 1.35-1.9 2.8 2-1.3 1.85-1.35-.9-.45.7 6.25 4.4" fill="#6f6f6f"/>
      <path d="m261.2 99.65.65-.45.9-.05.45.35.25-.45-1.5-1.05.1-.15 4.3 3-.1.15-2-1.4-.55.8v.2l.25.2-.4.55h-.05l-2.05 2.95-.75-.55 1.35-1.9h-.15l-.7-.5-.3-.8.1-.25-.55-.35-.25.35-2.35-1.65 1.1-1.55 2.35 1.65-.45.65.35.25m10-6.05 1.6-2.3 1.45 1-1.6 2.3-1.45-1" fill="#6f6f6f"/>
    </g>
  </defs>
<div xmlns="" id="divScriptsUsed" style="display: none"/><script xmlns="" id="globalVarsDetection" src="moz-extension://a8f8a557-9adb-4b9b-a15d-de59ef70889b/js/wrs_env.js"/></svg>