<svg xmlns="http://www.w3.org/2000/svg" viewBox="0 0 326 1768.45">
  <g fill-rule="evenodd">
    <path d="m43 359 9-202L74 0h217.5q11 76.5 21.5 153l10 206h3q-.5 441.5-1.5 882.5-2 64.5-4.5 129l-15 77.5h3.5q-2 19.5-4.5 38.5l14 64.95-46 129-27.5 49q-8 10-16.5 19.5-9.5 7-19 13.5-4.5 2.5-9 4.5l-14 1.5h-9l-10.5-2.5q-6-2-12-4.5l-16.5-13.5-18-19.5-43-92q-15-42.5-30.5-85Q55 1520 63 1488.5q-3-20-6.5-40.5H61l-14-77.5-6-129V359h2" fill="#424242"/>
    <path d="m47 364 9-209L77 5h210.5l21 146 6 72.5 4 140.5h2.5v875.5q-2.5 64.5-5.5 129-7 42-14.5 83.5h4l-6 32.5 12 67.95h-6l-39 112.5-38 69-18.5 13-9 5-12.5 2h-8l-10.5-2q-5.5-2.5-11.5-5l-16-13q-14-23-28.5-46.5l-11-23q-20.5-56-41.5-112H50.5l18-65.95q-3.5-17-7.5-34.5h4q-7-41.5-14.5-83.5-2.5-64.5-5.5-129V364h2" fill="#959595"/>
    <path d="m183.5 1709.95 1 1v3l-1 1q-.5.5-1.5.5-.5 0-1.5-.5l-1-1-.5-1.5q.5-.5.5-1.5l1-1q1 0 1.5-.5 1 .5 1.5.5m-58.5-158.5h56v2h-56v-2m-65 0h56v2H60v-2m125.5 0h56v2h-56v-2m65.5.5h56v2h-56v-2M114 1323.5h4V1304h3.5v19.5H237V1304h3.5v19.5h4.5v193h-4.5v15H237v-15H121.5v15H118v-15h-4v-193m57-54.5v-8l4-7 7-4h8l7 4 4 7v8l-4 7-7 4h-8l-7-4-4-7m90-21.5h9v37.5h-60v-37.5h40v-5h11v5m-163.5 1h7.5v-5.5h10v5.5h47v25.5h-29.5v8.5h-35v-34m73.5-576v-8l4-7 7-4h8l7 4 4 7v8l-4 7-7 4h-8l-7-4-4-7m91.5 538.5H258v-3.5h4.5v3.5m55.5-4h-4.5v-5h4.5v5m0-60.5h-4.5v-5.5h4.5v5.5m-4.5-67h4.5v5.5h-4.5v-5.5m4.5-36h-4.5v-5.5h4.5v5.5m0-61.5h-4.5v-5.5h4.5v5.5m0-61.5h-4.5V915h4.5v5.5m0-41h-4.5v-6h4.5v6m0-61h-4.5v-6h4.5v6m0-61.5h-4.5v-5.5h4.5v5.5m-4.5-172h4.5v5.5h-4.5V585m4.5-54.5h-4.5V525h4.5v5.5m0-62h-4.5V463h4.5v5.5M48.5 1201H53v5h-4.5v-5m0-61H53v5.5h-4.5v-5.5m0-61H53v5.5h-4.5v-5.5m0-42H53v5.5h-4.5v-5.5m0-61.5H53v5.5h-4.5v-5.5m0-61H53v5.5h-4.5v-5.5m0-41.5H53v5.5h-4.5V873m0-61H53v5.5h-4.5V812m0-61H53v5.5h-4.5V751m0-167H53v6h-4.5v-6m0-60H53v6h-4.5v-6m0-62H53v6h-4.5v-6M295 729.5h-4.5V724h4.5v5.5m-19-5.5h4.5v5.5H276V724m3.5 153.5h5v4.5h-5v-4.5m-197.5 0h5v4.5h-5v-4.5m197.5 164h5v4.5h-5v-4.5m-197.5 0h5v4.5h-5v-4.5m21 165.5h5v4.5h-5v-4.5m176.5-596h4.5v5.5h-4.5V611M70 724h4.5v5.5H70V724m14.5 0H89v5.5h-4.5V724M81 611.5h4.5v5.5H81v-5.5m170 36v4h19V689h-19v3.5h-3V689h-38v-37.5h38v-4h3m-89 5V678h-29.5v8.5H119v6h-3.5v-6h-18v-34h18v-5h3.5v5h43m98 415.5h16v2h-16v-2m-28.5 0h16v2h-16v-2m-28.5 0h16v2h-16v-2m-28 0h17.5v2H175v-2m-28.5 0h16v2h-16v-2m-28.5 0h16v2h-16v-2m-28 0h16v2H90v-2m170-164.5h16v2h-16v-2m-28.5 0h16v2h-16v-2m-28.5 0h16v2h-16v-2m-28 0h16v2h-16v-2m-28.5 0h16v2h-16v-2m-28.5 0h16v2h-16v-2m-28 0h16v2H90v-2m170-164h16v2h-16v-2m-28.5 0h16v2h-16v-2m-28.5 0h16v2h-16v-2m-28 0h16v2h-16v-2m-28.5 0h16v2h-16v-2m-28.5 0h16v2h-16v-2m-28 0h16v2H90v-2m169-140h16v2h-16v-2m-28.5 0h16v2h-16v-2m-28.5 0h16v2h-16v-2m-28 0h16v2h-16v-2m-28.5 0h16v2h-16v-2m-28.5 0h16v2h-16v-2m-28 0h16v2H89v-2m7 129h-4.5V725H96v3.5m-8.5-116H92v3h-4.5v-3m187.5 116h-4.5V725h4.5v3.5m-.5-116h4.5v3h-4.5v-3m-224-390H57V233h-6.5v-10.5m-2.5 88h7.5v9H48v-9m273.5 9H313v-9h8.5v9m-4.5-87h-7v-8h7v8M78 756h211v121H78V756m192-639q3.5 34 6.5 67.5V396h-187V184.5Q93 151 96 117h46v-8h82.5v8H270M78 919.5h211v121H78v-121m0 165.5h211v121H78v-121m211-620v121H78V465h19.5v-12h8.5v3.5h-5v8.5h164.5v-8.5H260V453h9v12h20M51 1225H26v-9q-12.5-22-25.5-44 6-3.5 11.5-7l27 46.5h12v13.5m-19-57v-3.5h17v3.5H32M0 386.5l12-7L38.5 426H51v13.5H25.5v-9q-12.5-22-25.5-44m32-4V379h16.5v3.5H32" fill="#424242"/>
    <path d="M156.5 1728.45q4.5-1.5 9-3.5l6 17-8.5 3q-3-8-6.5-16.5m33.5 16.5 6-16.5 9 3q-3 8.5-6.5 17l-8.5-3.5m52-88 6-16.5 9 3-6 17-9-3.5m-126-16.5q3.5 8.5 6.5 16.5-4.5 2-9 3.5l-6-17q4.5-1.5 8.5-3m50.5 33h4v20.5h-4v-20.5m-13.5 8v-7h11v7h-11m-23 19 12-10q6 7 11.5 14l-12 10q-5.5-7-11.5-14m87.5 11 1-18 15.5 1-1 18-15.5-1m-56.5-20v-4h4.5v4H161m-1-44v-20.5h4v20.5h-4m-13.5-12.5v-7h11v7h-11m8 10v-4h4.5v4h-4.5m70.5 2.5h-4v-20.5h4v20.5m-6.5-19.5v7h-11v-7h11m1.5 13v4h-4.5v-4h4.5m-73 43-3.5 2-10.5-17.5q2-1 3.5-2l10.5 17.5m-10 2.5-2-3 4-2.5 2 3.5-4 2m104-13.5-3 7-10-5q1.5-3 2.5-6.5l10.5 4.5m-6 19.5 9-19q1.5 1 3 1.5l-8 19q-2-.5-4-1.5m-2.5-8.5 4 2q-.5 2-1.5 3.5l-4-2q1-1.5 1.5-3.5m-20.5 10v-20.5h4v20.5h-4m-2.5-20v7h-11v-7h11m-3 17v-3.5h4.5v3.5h-4.5M250 73.5q-1.5 1.5-3.5 3l-13-16 3-2.5L250 73.5M236.5 68q-4 4-8.5 7.5l-4.5-5.5 8.5-7 4.5 5m7.5 7q-1.5 1.5-3.5 3l-2.5-3 3.5-3 2.5 3m37 12.5q-1.5 1.5-3.5 2.5-6.5-7.5-13-15.5l3-3 13.5 16M259 89l-4.5-5q4.5-3.5 8.5-7.5l4.5 5.5-8.5 7m13.5-3 2.5 3q-1.5 1.5-3.5 2.5l-2.5-3q2-1 3.5-2.5M131 1670.45q2 3 3.5 6-4.5 3-9.5 5.5-1.5-3-3.5-6 5-2.5 9.5-5.5m-56-114h1.5l1 1v1.5l-1 1H75l-1-1v-1.5l1-1M52.5 1049.5q1 1 1.5 2v2.5q-.5 1-1.5 1.5H50l-2-1.5v-2.5l2-2h2.5m-2.5 9h2.5q1 1 1.5 2v2.5q-.5 1-1.5 1.5H50l-2-2v-2l2-2m266-2.5h-2.5q-.5-1-1.5-2v-2.5q1-.5 1.5-1.5h2.5l2 1.5v2.5l-2 2m0 9h-2.5q-.5-1-1.5-2v-2.5q1-.5 1.5-1.5h2.5l2 1.5v2.5l-2 2M50 629.5h2.5l2 2v2.5l-2 1.5H50l-1.5-1.5v-2.5q1-1 1.5-2m4.5 13-2 2H50q-.5-1-1.5-2V640q1-.5 1.5-1.5h2.5l2 1.5v2.5M316 636h-2.5q-.5-1-1.5-2v-2.5q1-.5 1.5-1.5h2.5q1 1 2 1.5v2.5l-2 2m0 8.5h-2.5L312 643v-2.5q1-1 1.5-2h2.5l2 2v2.5q-1 1-2 1.5M68 1559.45h2.5l1.5 1.5v2.5q-.5 1-1.5 1.5H68l-1.5-1.5v-2.5q1-.5 1.5-1.5m232.5-3h1.5l1 1v1.5l-1 1h-1.5l-1-1v-1.5l1-1m-174-307.95h-3v-2h-8v-3h11v5m116.5-2v1h-3v-4h10.5v3H243m-127.5-554h3.5v32q0 1-.5 1.5l-1 1-1.5 1q-1 .5-2.5.5H96V725h19q.5 0 .5-.5v-32m-23.5-77v-3h24q1 .5 1.5 1l1 1q.5 1 .5 1.5v31.5h-3.5v-31l-.5-.5q-.5 0-1.5-.5H92m156 77h3v32l.5.5h19v3.5H253q-1 0-2.5-.5l-1.5-1-.5-1-.5-1.5v-32m5-77q-.5.5-1.5.5 0 .5-.5.5v31h-3V616q.5-.5.5-1.5.5-.5.5-1l1.5-1h24v3H253M269 7v10.5h-32.5V7H269M129 7v11H97.5V7H129m88.5 41-7.5 5-9.5-15q3.5-2 7-4.5 5 7.5 10 14.5m29.5 8q3.5-2 7-4.5L264 66l-7 5-10-15M132 88.5l-3-3q6.5-7.5 13-15.5l3.5 2.5q-6.5 8-13.5 16m3.5-13.5-8.5-7q2.5-2.5 4.5-5.5l9 7q-2.5 3-5 5.5m-3 5q-1 1.5-2.5 3l-3-3q1.5-1.5 2.5-3l3 3M109 81q1.5 1.5 3 2.5-6.5 8-13.5 16-1.5-1-3-2.5l2-2-3.5-3q1.5-1.5 2.5-3l3 3 4-4.5-7.5-6q2.5-2.5 4.5-5.5l7.5 6.5q.5-.5 1-1.5m57.5-43.5-10 15-7-5q5-7.5 9.5-15 4 2.5 7.5 5M108 71l-7-5 10-14.5q3.5 2.5 7 4.5l-10 15m24 1520.45v10h-10v-10h10m0-30v-5h18v5h-18m22.5 0v-5h18v5h-18m55-5v5h-18v-5h18m23 0v5h-18v-5h18M54 1374l11-2 4 18.5q-5.5 1.5-11.5 2.5-1.5-9.5-3.5-19m245.5-2 11.5 2-4 19q-5.5-1-11-2.5 2-9 3.5-18.5m15-64 1.5 1 .5 1.5q0 6-.5 11.5l-1 1.5q-1 .5-2 .5h-1.5l-2-2 1-12q.5-.5.5-1l1.5-1h2M55 1309q.5.5.5 1 .5 6 .5 12l-2 2h-1.5l-2-.5-1-1.5q0-5.5-.5-11.5l1-1.5 1-1h2l2 1m-2-133v16h-7v-16h7m-3-64.5v19.5h-5v-19.5h5m0-23v19.5h-5v-19.5h5m0-144V964h-5v-19.5h5m0-23V941h-5v-19.5h5m4.5-31V905H48v-14.5h6.5m262 239.5v-19h5v19h-5m0-23v-19h5v19h-5m0-144v-19h5v19h-5m0-23v-19h5v19h-5m0-143v-19h5v19h-5m0-23v-19h5v19h-5M50 778v19h-5v-19h5m0-23v19h-5v-19h5m0-258v19.5h-5V497h5m0-23v19.5h-5V474h5m266.5 42.5V497h5v19.5h-5m0-42.5h5v19.5h-5V474m-47 796v-7.5h5.5v7.5h-5.5m-82-20.5h-3V1238h3v11.5m75-40 22.5-3 1 9-22.5 3-1-9M138.5 742q-1.5-8-3.5-16.5 6.5-1 12.5-2.5l3 16.5q-6 1.5-12 2.5m69.5-55.5-8 15-11-6q4-7.5 7.5-15l11.5 6m67-20v7.5h-5.5v-7.5h5.5m-177.5-1v6.5h-5v-6.5h5m-50 11.5v-27.5h3V677h-3m268.5 0v-27.5h3V677h-3m-148.5-88v5.5H151V589h16.5m29-528.5Q191 66 185.5 71L173 57.5l11-10 12.5 13m.5 1560.95-1 5.5q-1.5 2.5-3.5 4.5l-5.5 2-5.5-1-4.5-3.5-2-5.5q.5-2.5.5-5.5l4-4.5 5-2 6 1 4.5 3.5 2 5.5M275 130q2-.5 3.5-1.5l4 1 3 2q1 2 1.5 4l-1 3.5q-1 2-2 3.5l-4 1-3.5-.5q-1.5-1-3-2.5L272 137q.5-2 .5-4l2.5-3M110.5 1609.95l3 2.5q1 2 1.5 3.5l-1 4-2 3q-2 1-4 1.5l-3.5-.5-3.5-2.5-1-3.5q.5-2 .5-4 1.5-1.5 2.5-3 2-.5 3.5-1.5l4 .5M212.5 414h-34v-18h16v3h18v15m21-17.5V409h-15v-12.5h15M95 123l-2 20-14-2q1.5-9.5 2.5-19.5L95 123m56.5-35q1 9 1.5 17.5l-15.5 1-1-17.5 15-1m2.5 1q9.5.5 18.5.5V95h19v13.5H172v-3h-18V89m55-5q4 8 7.5 16-6.5 3.5-13 6.5-3.5-8-7.5-16 6.5-3 13-6.5m-99 11q7-2.5 14-5.5 3.5 9 6.5 17.5-7 3-14.5 5.5L110 95m82 1607.45-1 1h-14.5l-1-1v-25l1-1.5H191l1 1.5v25M47.5 717.5l1-1 3.5 1q.5 1 1 1.5v12l-2 2h-1.5l-2-1q0-.5-.5-1 0-6-.5-12 .5-.5 1-1.5m-1-110.5 2-2h2q1 .5 1.5 1l1 1v12l-2 2h-1.5q-1 0-2-.5 0-.5-.5-1.5 0-6-.5-12m272.5-1 .5 1v12q0 .5-.5 1l-1.5 1H316q-1 0-2-.5l-.5-1.5v-12q.5-.5.5-1l1.5-1h1.5l2 1M52 398l1 1v12l-2 2h-1.5q-1 0-2-.5 0-.5-.5-1.5 0-6-.5-12l2-2h2q1 .5 1.5 1m267 0 .5 1v12q0 .5-.5 1l-1.5 1H316q-1 0-2-.5l-.5-1.5v-12q.5-.5.5-1l1.5-1h1.5l2 1" fill="#6f6f6f"/>
    <path d="M1.5 387q5-2.5 10-5.5L38 427h11.5v11.5h-23v-8L1.5 387M50 1224H27v-8l-25-43.5q5-2.5 9.5-5.5 13.5 23 26.5 45.5h12v11.5" fill="#ffffff"/>
    <path d="M89.5 238v58.5H76V238h13.5" fill="#424242"/>
    <path d="M77 295v-57h11.5v57H77" fill="#ffffff"/>
    <path d="M290.5 238v58.5h-14V238h14" fill="#424242"/>
    <path d="M278 295v-57h11v57h-11M125.5 1555.95h-10v-6.5h10v6.5m125.5 0h-10v-6.5h10v6.5M187.5 741.5H178V734h9.5v7.5m0 328.5H180v-7h7.5v7m0-164.5H180V899h7.5v6.5M187 607h-9.5v-7.5h9.5v7.5" fill="#ffffff"/>
  </g>
</svg>