<svg xmlns="http://www.w3.org/2000/svg" viewBox="0 0 225.9 299.05">
  <g fill-rule="evenodd">
    <path d="M77.85 0 74.8 23.35l-.6.8-1.1.45-2.2.05-1.2.4-.6.85-.2 1.25.1 1.15.5.5.6.25 4.35.55 5.4 1.7 5.3 3.2 2.1 1.9 4.6 5.25 2.75 4.6-6.7 2.95.85 4.35.25 5.1-.85 4.25-2.4 5.3-3.4 4.15-4.8 3.2-5.45 1.8-5 .35-4.15-.75-4.55-2.1-4.75-3.55-1.9.2L34 79.4l-1.2 1.3.25 2L55 131.35l.35 2.25-.6 1.8-3.75 2.45 14.1 31.65-47.8 21.25L.9 154.2l-.7-2.65.95-1.75 1.4-1.2 35.95-16.05 1.65-1.6-.4-2.25-22.8-51.6.4-4.15 3.4-2.05 27.2-12.1-.1-2.1.3-2.7 1.45-5.35 1.5-2.6 2.35-2.8 2.1-1.95 1.7-17.05-5.6-1.75L54.05 0h23.8" fill="#b4b4b4"/>
    <path d="m43.4 46.4 1.45-2.95 1.15-1.7L50.35 0h4.05l-4.55 43.25-4.05 14.4-4.05 4.65-5.5 2.45-2.95-6.65 8-3.55.95-5 1.15-3.15m94.8 38.5.15.25 26.2 58.9 13.05-5.8 16.2 36.3-4.1 1.85 25.45 57.25-43.1 19.2 4.35 9.75-60.2 26.8-4.35-9.75-37.3 16.6-34.9-78.4-3.5 1.35-13.55-30.5 5.8-3.8 36.15-16.1-13.9-31.15 1.5-.65h.05l.05-.05 1.15-.65.9-.8.35-.5.4-1 .1-.7-.1-1.2-21.6-48.45 4.55-5.9 10.25-4.6 10.2 1.35 1.75 1 4 1.45 4.1.45 4.35-.45 4-1.3 1.9-.95 2.7-1.75 3.6-3.95L86 67.3l1.7-3.9.6-2.1.25-1.95V57.1l-.3-3.7-.8-3.4.05-.25.35-.7.25-.2.4-.25 5.75-2.6-3.1-5.25-3.9-4.35-4.85-3.5-2.7-1.45-2.55-.9-3.6-2.95 1.35-5.05L77.55 0h4.05l-2.5 23.5 3.7 1.45 6.4 3.65 5.55 5 4.2 5.75 1.9 3.6 18.85-8.35 14.4 32.35-9.55 4.25 7.35 16.5 6.3-2.8" fill="#959595"/>
    <path d="m109.7 178.8-1.25-2.8 3.35-1.5 1.25 2.85-3.35 1.45m-3.65-8.2-1.25-2.8 3.35-1.5 1.25 2.85-3.35 1.45m-3.65-8.2-1.25-2.8 3.35-1.5 1.25 2.85-3.35 1.45m-3.65-8.2-1.25-2.8 3.35-1.5 1.25 2.85-3.35 1.45M95.1 146l-1.25-2.8 3.35-1.45 1.25 2.8L95.1 146m-1.55-12.45 1.25 2.8-3.35 1.45-1.25-2.8 3.35-1.45m34.4 37.15-1.25-2.85 3.35-1.45 1.25 2.8-3.35 1.5m9.45-5.2-1.7-3.7 2.25-1 1.65 3.7-2.2 1m-13.1-3-1.25-2.85q1.7-.7 3.35-1.45l1.25 2.8-3.35 1.5m-3.65-8.2-1.25-2.85 3.35-1.45 1.25 2.8-3.35 1.5m-3.65-8.2-1.25-2.85 3.35-1.45 1.25 2.8-3.35 1.5m-3.65-8.2-1.25-2.8 3.35-1.5 1.25 2.8-3.35 1.5m-4.9-11 3.35-1.5 1.25 2.8-3.35 1.5-1.25-2.8m-62 66-1.15-2.6 3.85-1.7 1.7 3.85-2.5 1.1L51.2 200l2.5-1.1 1.7 3.85-3.75 1.65-1.2-2.65-6.5 2.9 1.1 2.6-3.75 1.65-1.7-3.85 2.55-1.15-2.8-6.35-2.65 1.15-1.7-3.85 3.75-1.65 1.2 2.65 6.5-2.95m11.35-9.6-1.6.75-.15-.3 1.6-.7.15.25m14.4-6.4-1.6.7-.15-.25 1.6-.7.15.25m53.65 6.15-1.6.75-.1-.3 1.6-.7.1.25m-28.85-64-1.6.75-.15-.3 1.6-.7.15.25m15.9-21.95-1.6.7-.1-.3 1.6-.7.1.3m-36.5 15-1.6.7-.1-.25 1.6-.75.1.3m7.85-31.75-1.6.75-.1-.3 1.6-.7.1.25m-7.5 3.3-1.6.75-.15-.3 1.6-.7.15.25M169 202.35l-1.6.75-.1-.3 1.6-.7.1.25m-21.35-21.4.7 1.55-.3.15-.7-1.6.3-.1m22.4 67.95.7 1.6-.3.1-.7-1.6.3-.1m3 9.4.75 1.6-.3.15-.7-1.6.25-.15m-41.25 6.75.7 1.6-.3.1-.7-1.6.3-.1m-8.45-2 4.85 10.9-3.9 1.7-4.85-10.9 3.9-1.7m4.75-7.6.7 1.6-.3.15-.7-1.6.3-.15m-4.75-10.65.7 1.6-.3.15-.7-1.6.3-.15M98.4 232l.05 1.75h-.35l-.05-1.75h.35m.25-17.55.05 1.75h-.3l-.05-1.75h.3m11.7-.65h1.75v.35h-1.75v-.35m2.1 0 1.75.05v.3h-1.75v-.35m43.9 41.15.7 1.6-.3.15-.7-1.6.3-.15m-1.45-58.1.7 1.6-.25.15-.75-1.6.3-.15m-73.35-22.7.7 1.6-.3.15-.7-1.6.3-.15m-19.6-44.05.7 1.6-.3.15-.7-1.6.3-.15m-3.05-.65.7 1.6-.3.1-.7-1.6.3-.1m65.85 44.25-7.3 3.3-2.4-5.4 7.3-3.25 2.4 5.35m3.3 19.1v1.7l-5.25-.1.05-1.7 5.2.1" fill="#6f6f6f"/>
    <path d="m123.2 194.4-.1 5.9-2.15-.05.1-5.9 2.15.05m-.1 6.75-.15 5.9-2.15-.05.1-5.85h2.2m-.25 6.9-.1 5.9-2.15-.05.1-5.9 2.15.05m-1.15-41.2-7.35 3.25-2.35-5.35 7.3-3.25 2.4 5.35m-3.05-6.85-7.3 3.3-2.4-5.4 7.3-3.25 2.4 5.35m-12.75-8.95 7.3-3.25 2.4 5.35-7.35 3.25-2.35-5.35m6.65-4.75-7.3 3.25-2.4-5.35 7.3-3.25 2.4 5.35m-3.05-6.85-7.35 3.25-2.35-5.35 7.3-3.25 2.4 5.35m-3.05-6.85-7.3 3.25-2.4-5.35 7.3-3.25 2.4 5.35m18.95 45.3-5.45 2.45-.45-.9L125 177l.4.9m47.8-27.25 1.35 3.1-16 7.1-1.35-3.1 16-7.1m-2.55-5.7-16 7.15-1.25-2.9 16-7.1 1.25 2.85M140.9 221.8l4.05-1.8 2.3 5.15 1.35-.6 4.7 10.6-1.35.6 2.4 5.35-4.05 1.8-2.4-5.35-.55.25-4.7-10.6.55-.25-2.3-5.15m-4.2-11.75 2 4.55-1.6.7-2-4.5 1.6-.75m2.2 5 2.05 4.5-1.6.75-2-4.55 1.55-.7M124.3 97.6l3.85-1.7 1.75 3.9-2.6 1.15 2.9 6.45 2.55-1.15 1.75 3.85-3.85 1.7-1.15-2.55-3.85 1.7 1.15 2.6-3.85 1.7-1.7-3.85 2.55-1.15-2.85-6.45-2.6 1.1-1.75-3.85 3.9-1.75 1.15 2.6 3.8-1.7-1.15-2.6M56 22.85l.5.2.35.25.3.3.2.3.2.5.1.45.05.85-1.6 15.1-.3.7-.3.45-3.2 3.45-2.05 3.5L48.9 53l-.5 5.05-.05.35-.25.55-.45.55-.6.45-5.3 2.35-1.35-3 4.9-2.15v-2.4l1-4.75 2-4.4 1.55-2.35L52 22.35l4 .5M53.15 71.1l.75.15.25.1.6.4.45.4 3.25 2.35-2 3.45-3.85-2.8-4.3 1.9-1.4-3.15-5.45 2.4 1.4 3.2-9.55 4.2-.55-1.3-.15-.9.05-.45.1-.4.2-.4.3-.35.7-.55L51.7 71.4l.75-.25.3-.05h.4m44-26.4-3 1.35-3-5.3 2.7-1.95 3.3 5.9m-9.9-8.3-4.85-3.5 1.7-2.75 2.75 1.7 2.55 2.1-2.15 2.45M74.4 23.65l.35-.6.15-.5.6.2-.7 3.8 3.35.9-1 3.1-2.8-.75-4.55-.6-.55-.3-.35-.4-.2-.6-.05-.6.3-1.3.15-.4.25-.35.3-.3.65-.35.5-.15.55-.05 1.1.05 1.1-.15.55-.3.3-.35m-18.6 124-2.1-4.75 2.6-1.2 2.1 4.8-2.6 1.15m4.8 4.7 2.1 4.75-2.25 1-2.1-4.75 2.25-1m-29.15-5.3-.05-.45.2-.6.25-.25 1.35-.6.3-.05.3.1.3.15.35.35 8.45 19 .1.3.05.45-.05.35-.15.3-.25.2-1.3.6h-.4l-.3-.05-.25-.15-.35-.4-8.55-19.25M35.6 87.4l2.25-1L39 89l-2.25 1-1.15-2.6m8.85 13.75-2.3 1L41 99.6l2.3-1 1.15 2.55m.45 7.1-1.15-2.55 2.25-1 1.15 2.55-2.25 1m9.2 14.7 2.85 6.4-2.25 1-2.85-6.4 2.25-1m-12.4-27.9q-1.1.55-2.25 1.05l-1.15-2.6 2.3-1 1.1 2.55m4.75 16.7 2.25-1 1.15 2.55-2.25 1.05-1.15-2.6m-2.4 71.4-1.95-4.35 8.75-3.9 1.95 4.35-8.75 3.9m20.5-14.35-2.2-4.95 3.1-1.4 4.15 9.35-7.2 3.2-1.95-4.4 4.1-1.8M51.4 116.85l1.15 2.55-2.25 1.05-1.15-2.6 2.25-1m-15.15-52.1-14.85 6.6-1.75.95-1.15 1.05-.45.65-.5 1.25-.05 1.55.1.8.65 1.8-6.3-12.3 21.15-9.4 3.15 7.05m-24.5 90.9v-.35l.05-.3.15-.3.25-.2.6-.35.7-.25.45-.05.3.1.25.15.4.55 13.45 30.25 4.2-1.85 1.95 4.35-9.85 4.4 12.1 27.15 21.7-9.65 2 4.55-11.75 5.2-1.55.9-.55.45-.7.75-.65 1.15-.25 1.3.15 1.65.6 1.75 26.9 60.25.45.7.6.7 1.05.85.65.3.8.2.5.05h.85l1.65-.35 22.65-10.1 1.35-1 .45-.45.35-.5.4-.75.2-.85.05-1.4-.35-1.55-8.05-18.25 4.7-2.1 12.2 27.35-41.05 18.25-35.45-79.6-5.85 2.6-13.75-30.9 8.5-3.7-13.8-31.1" fill="#6f6f6f"/>
    <path d="m83.1 206.6-1.25-.7-.45-.15-1.7-.1-1.7.4-10.15 4.5-2-4.55 19.35-8.65 8 17.95-.35 19.75 4.6 10.3-4.55 2.05-4.2-9.5-.55-1.85-.25-1.95.2-16.15-.2-1.55-.65-2.25-2.65-5.75-.45-.75-1.05-1.05m17.35-12.05-3.25-7.3 1.9-1.65 3.6 8.15 1.1-.05-.4 15.3-3.25-.05.3-14.4M129.6 88.9l-7.45-16.7 2.4-1.05 7.4 16.7-2.35 1.05m9.05 38.65 4.95 11.1-8.5 3.75-4.95-11.05 8.5-3.8m44.9 31.5-3.65-8.25 3-1.35 3.65 8.25-3 1.35M191.1 176l-3.8-8.45 3-1.35 3.75 8.5-2.95 1.3M119.15 41.05l2.95-1.3 9.8 22-2.95 1.3-9.8-22M152.7 268.9l1.8 4-7.6 3.4-1.8-4.05 7.6-3.35m-21 14.05-1.75-3.95 7.6-3.35 1.75 3.9-7.6 3.4m-9.4-.5 1.7 3.8-7.6 3.4-1.7-3.85 7.6-3.35m58.95-55.6-18.1 8.05-2.3-5.1 4.25-1.9-1.4-3.1 13.85-6.2 3.7 8.25M89.95 191l1.65.55-.05.3-1.7-.55.1-.3" fill="#6f6f6f"/>
    <path d="m84.2 98.2 1.65-1.05 1.85-.7 1.95-.3 1.95.1 1.9.45 1.8.8 1.55 1.15 1.35 1.45 1.05 1.65.65 1.85.35 1.95-.1 1.95-.45 1.9-.8 1.8-1.15 1.55-1.45 1.35-1.65 1.05-1.85.65-1.95.35-1.95-.1-1.9-.45-1.8-.8-1.6-1.15-1.3-1.45-1.05-1.65-.7-1.85-.3-1.95.1-1.95.45-1.9.8-1.8 1.15-1.6 1.45-1.3M62.25 49l1.7-1.05 1.9-.7 1.95-.3 2 .05 2 .5 1.8.8 1.65 1.2 1.35 1.45 1.05 1.75.7 1.85.35 2-.1 2-.45 1.95-.85 1.85L76.15 64l-1.5 1.35-1.7 1.05-1.9.7-1.95.3-2.05-.05-1.95-.45-1.8-.85-1.65-1.2-1.35-1.45-1.05-1.7-.7-1.9-.35-2 .1-2 .45-1.95.85-1.85 1.15-1.6 1.5-1.4m13.9 70.35.35.1.15.35-.05.35-.25.2H76l-.3-.2-.05-.35.15-.3.35-.15m3.9 10.15-.25-.25-.1-.35.2-.3.3-.1.35.1.2.3-.1.35-.25.25h-.35m3.75 8.55.15-.3.35-.15.3.15.2.3-.05.35-.3.25h-.35l-.25-.25-.05-.35m6.6 2.9-.05-.35.15-.35.35-.1.35.1.15.3-.05.35-.25.25h-.35l-.3-.2m-2.55 6.25.15-.3.35-.15.35.15.15.3-.05.35-.25.2h-.35l-.3-.2-.05-.35m24.7-22.2.35.1.2.3-.1.35-.25.25h-.35l-.3-.25-.05-.35.2-.3.3-.1m2.6-9.35.3-.15.35.15.15.3-.05.35-.25.2-.35.05-.3-.25-.05-.35.2-.3m-2.2-6.4.2.3-.1.35-.25.25h-.35l-.3-.25-.05-.35.2-.3.3-.1.35.1m12.6-4.5.55.2.3.5-.1.6-.45.4h-.55l-.5-.4-.1-.6.3-.5.55-.2m-15.25-1.6-.1.35-.25.25h-.35l-.25-.25-.1-.35.2-.3.3-.1.35.1.2.3m.95 28.15.15.3-.05.35-.25.25h-.35l-.3-.25-.05-.35.15-.3.35-.1.35.1m17.3-9-.05-.35.15-.3.35-.15q.2.1.35.15l.15.3-.05.35-.25.2h-.35l-.3-.2m7.9-4.05.35.15.15.3-.05.35-.25.2h-.35l-.3-.2-.05-.35.2-.3.3-.15m-13.2 22.8.15.3-.05.35-.25.25h-.35l-.3-.25-.05-.35.2-.3.3-.1.35.1m3 8.25.3-.15.35.15.2.3-.1.35-.25.2h-.35l-.25-.2-.1-.35.2-.3m10.2 1.8.2.3-.05.35-.3.2h-.35l-.25-.2-.1-.35.2-.3.35-.15.3.15m.55 11.95.25-.45.5-.2.55.15.3.5-.1.55-.45.35h-.55l-.4-.35-.1-.55m-20.35-28.9.3.1.2.3-.05.35-.3.25h-.35l-.25-.25-.1-.35.2-.3.35-.1m-20.15 30.9.3.1.2.3-.05.35-.3.25h-.35l-.25-.25-.05-.35.15-.3.35-.1m4.4 9.2.15.3-.05.35-.25.25h-.35l-.3-.25-.05-.35.15-.3.35-.1.35.1m-14.1 10.4-.5.2-1.2-2.75 10.6-4.75 7.15 16.05 12.6.2-.25 15.35-.5-.05.2-14.8-10.85-.1-.35 15.2-.55-.05.35-15.15-.95-.05-3.55-7.9-1.95 1.5-.3-.35-3.2 2.7-1.5.75-.65.1-.6-.1-.55-.2-.55-.4-.5-.5-.55-.8-1.85-4.1" fill="#424242"/>
    <path d="m148.25 110.2 1.05-.45-10.95-24.6-6.5 2.95-7.55-17 9.6-4.3-14.25-32.1-18.85 8.4-.2-.4 19.25-8.55 14.65 32.9-9.55 4.25 7.2 16.1 6.45-2.9 10.3 23.25 9.15-4.1 16.1 36.05 3.8-1.7 16.35 36.7-4.2 1.9 3.3 7.45 1.5-.65.4.9-1.5.65 3.4 7.6 5-2.25 10.1 4.35 2.05 1.35 1.9 1.85 1.25 2.2 1.15 4.95.6 4.3.5 1.6.7 1.35 4.2 5.75.75 1.8.5 3.4-.05 1.85-.3 1.65-.55 1.65-.85 1.6-1.1 1.3-1.5 1.2-4.7 2.55-16.5 7.35.7 1.55-2.75 1.25 2.1 4.8-3.45 7-20.1 8.9-1-2.25-59.6 26.55-4.1-9.15-40.6 18.05-35.5-79.8-5.6 2.5L.3 153.95 0 152.5l.05-1.3.2-.65.65-1.1 1-.95 1.4-.75 35.45-15.8.5-.3.45-.45.2-.55v-.35l-.15-.7-.15-.45L11.95 67.1l29.3-13.05.15.4-28.6 12.7 27.6 62.05.2.65.05.6-.05.35-.3.8-.6.65-.7.4-36.05 16.1-1.05.7-.7.85-.25.5-.15.5-.05 1.15.05.55.2.7 29.85 67.05 5.6-2.45 35.5 79.7 40.75-18.1-6-13.5.6-.25 6.1 13.7 10-4.45-5.95-13.4.65-.25 6.2 13.9-11.5 5.15 3.75 8.45L175.6 263l-5.45-12.15L172 250l-4.05-9.15-1.85.85-3.1-7 18-8-4.2-9.45.9-.4-4.45-10.05-.9.4-.45-.9.5-.2-.35-.75.75-.3.35.7 4.55-2-.3-.75.7-.3-.5-1.1.95-.4-1.1-2.4-.9.4-.1-.1-.7.3-.6-1.3-4.55 2 .6 1.3-.75.3-.6-1.3-4.55 2.05.6 1.3-.75.35-.6-1.3-4.55 2 .6 1.3-.75.35-1.35-.45-.35-.75 1.35-.6-2-4.5-1.35.6-.35-.8 1.35-.6-2-4.5-1.35.55-.35-.75 1.35-.6-2.05-4.5-1.35.6-.3-.8 1.3-.6-2-4.5-1.35.6-.35-.8 1.35-.6-2-4.55-1.35.6-.35-.8 1.35-.6-2-4.45-1.35.6-.4-.9 1.15-.5-2.6-5.4 31.85-14.15 2.5 5.5-1.85.85 6.15 13.8 1.85-.8 2.45 5.5 8.05-3.55-16-35.95-5 2.25-.1-.3-2.25 1 .1.3-16.8 7.5-3.95-8.9-6.55 2.95-2.85-6.35-.8.35-1.55-.05-1.2-1.3-.65-1.5-.1-1.55.95-1.25.85-.35-2.95-6.55 9.2-4.1-3.25-7.2 1.25-.55.15.35 6.4-2.85-.15-.35" fill="#424242"/>
    <path d="m67.45 85.15 5.05-.2 2.2 5 4.7-2.1.2.5-4.7 2.05.05.05 3.6 8.1.8.5-1.55 3.2-.4 1.65-.2 2.7.5 2.95 1 2.5.65 1.2.85 1.1 1.9 1.95 1.1.75-.5.85-2-1.55-1.3-1.35-1.55-2.4-.65-1.4-2.7 1.2-.4-.85-4.6 2.05.8 1.85-1.8.8 25.15 56.45L83 177.4l-25.1-56.45-.9.45-16.25-36.55 3.7-1.65.45.95 5.5-2.45-.4-.95 2-.9 4.95 2.85.25.1-.45.8 2.3 1.1 3.05.8 3.35.5.1-1.1 1.9.25m67.6 106.5 2.15.4 1.95.9 1.7 1.3 1.35 1.7.9 2 .4 2.15-.15 2.15-.65 2.1-1.15 1.85-1.55 1.55-1.85 1.15-2.1.65-.6.05.05.15 7.65 17.25-.45.2 1.25 2.8 1.1-.1.75.15.55.25.45.45.65 1.5.15.6-.15.9-.5.65-.8.65 1.25 2.75.45-.2 5.35 12-.9.45 2.45 5.45.9-.4 2.45 5.5-23.2 10.3-4.85-10.9 1-.45-8.15-18.3-8.8 3.95-4.8-10.9-9.75-.2 1.35 3.05 5.7.1-.05.9-5.2-.05 15.95 35.85-.9.4-4.6-10.25.5-.2L99 234.05l.3-20 9.8.2.05-4.85-.5-.15.25-11.1 1-.15-.35 22.3 4.95.05.1-6 1-.05-.05 2 1 .05.05.5 2.95.05v-.5h1l.05-2.05 1.15.05.15-20.65 6.5.1.15.1.35-.35 1.9-1.15 2.05-.65 2.2-.15m-63-26.45.2.3-.05.35-.3.2h-.35l-.25-.2-.1-.35.2-.3.35-.15.3.15m-12.2-27.4.2.3-.05.35-.3.25h-.35l-.25-.25-.05-.35.15-.3.35-.1.3.1m-4.7-8.4-.1-.35.2-.3.35-.1.3.1.2.3-.05.35-.3.25h-.35l-.25-.25m107.05 80.4.35.7-.75.3-.3-.7.7-.3m5.3-2.4.35.75-.75.3-.35-.7.75-.35M54.3 140l.4.9-.9.4-.4-.9.9-.4m88.25 14.75.4.95-.9.4-.45-.9.95-.45m3.6 10.55-.4-.9.9-.4.4.9-.9.4m9.25-16.25.45.9-.95.4-.4-.9.9-.4m3.6 10.55-.4-.95.95-.4.4.9-.95.45M103.65 49.05l-.45-.95 3.6-1.6.4.95 5.55-2.5-.4-.9 1.75-.8 1.25 2.75-.85.4L117 52l.85-.35 1.55 3.55-.85.4 3.7 8.3.85-.4.8 1.75-1.8.75-.35-.85-5.55 2.5.35.85-1.8.8.8 1.8-.85.4 3.75 8.4.85-.35 1.55 3.4-.85.4 2.5 5.65.85-.4 1.2 2.75-2.85 1.25-.35-.75-8.2 3.65.35.7-3 1.35-.8-1.8-5.5 2.45.4.85-1.8.85 1 2.6.45 2.95-.15 2.9-1-.15.15-2.7-.4-2.65-1-2.6-1.55-2.4-1.05-1.15-1.9-1.65-2.9-1.45-2.05-.35V92.2l-3.55-8-4.65 2.1-.2-.45 4.65-2.1-2.3-5.15.85-.6 3.45-3.75.4-.6 1 .8 2.5-4.2 1.65-4.1-1.1-.35.75-2.8 1.1.35.6-4.35-.15-4.75h-1.1l-.45-2.85 1.8-.85.4.95 5.6-2.45M61.95 159.6l-.4-.9.9-.45.4.9-.9.45m-3.55-10.45.4.9-.9.4-.4-.9.9-.4m98.1 64-.3-.7.7-.3.3.7-.7.3m-31.3-85.05.4.95-2.7 1.2-.45-.9 2.75-1.25m15.2 47 .3.65-.7.35-.3-.7.7-.3m2.35 5.25.3.75-.7.3-.35-.8.75-.25m21.45 41.55.9-.45.35.85-.9.45-.35-.85m11.45 2.55.9-.4.4.85-.9.4-.4-.85m-54.1-104.55.4.9-2.75 1.25-.4-.95 2.75-1.2m29.95 81.95.7-.3.3.7-.7.35-.3-.75m-6.4-16.2.35.75-.7.3-.35-.75.7-.3m1.65 5.6.7-.3.35.7-.75.3-.3-.7m3.1 5 .3.7-.7.3-.35-.7.75-.3m4 10.9.7-.3.3.7-.7.3-.3-.7M57.1 183.6l.45.95-.95.45-.4-.95.9-.45m18.45 2.2-.4-.9.9-.4.4.9-.9.4m-11.15-4.25-.45-1 .9-.35.4.95-.85.4M71.25 197l-.4-.9.9-.4.4.9-.9.4m.9-18.95-.45-.95.9-.4.45.95-.9.4m-9.35-2.45.4.9-.9.4-.4-.9.9-.4m7.75-3.45.45.9-.9.4-.4-.9.85-.4m8.45 21.4-.4-.9.95-.4.35.85-.9.45m-24.85-14.1.9-.4.45.9-.95.4-.4-.9m13.65 9.8-.4-.9.9-.4.4.9-.9.4m29.2-60.6 5.5-2.45 21.9 49.3-5.45 2.45L97 128.65m-2.05-10.35 1.25-.55.45.9-1.3.6-.4-.95m-43.5 72.95.4.9-.95.45-.4-.95.95-.4m9.1.15.4.9-.9.4-.4-.9.9-.4m-6.45-2 .85-.35 4.7 10.6-.85.35-4.7-10.6m.45 11.4-.4-.95.95-.4.4.9-.95.45m8.95-.35-.4-.9.9-.4.4.9-.9.4" fill="#424242"/>
    <path d="m85.95 125.9.4.9h-.05l.05.1-.9.4-.45-.95h.05v-.05l.9-.4m3.55 10.5-.4-.9.9-.4.4.9-.9.4m4.55 7.8.4.95-.9.4-.4-.9.9-.45m4.1 9.15.4.9-.95.4-.4-.9.95-.4m4.05 9.15.4.9-.9.4-.4-.9.9-.4m4.05 9.1.4.9-.9.45-.4-.95.9-.4m-3.1 17.65.9-.4.4.9-.9.4-.4-.9m-56.1 10.2-2.6 1.15-1.1-2.55 2.55-1.15 1.15 2.55M87.8 283.2l1 2.25-1.05.45-1.5-3.35 8.5-3.8-.7-1.65-8 3.6-.45-.95 12.1-5.4-1.75-4.05 1.1-.45 2.2 4.95-4 1.8 1.2 2.75-8.65 3.85m-30.25-29.8-.45-1 3.2-1.45 4.05 9.2-.95.45-3.6-8.2-2.25 1m1.8-39.05 1.1-.5 2.25 4.95 7.7-3.45.45.95-7.8 3.5 2.45 5.55-4.25 1.9-3.65-8.2-8.3 3.7-.35.2-.25.35v.05l-.1.3.05.5 4 9 2.55-1.1 4.2 9.45-1 .45-3.8-8.5-2.75 1.2-4.05-9.15-.3-1.1-.05-.85.15-.75.65-.85.55-.4 9.45-4.15 3.7 8.4 2.05-.95-4.65-10.5M71 277.6l-2.25 1-.45-1.05 3.35-1.5 4.3 9.65.55.55.45.15 1.6-.2 3.75-1.65-.85-1.85-4.2 1.85-3.9-8.8.85-.35 3.5 7.85 4.4-1.95 1.7 3.75-4.7 2.1-2 .35-.7-.05-.7-.35-.6-.5-.4-.65-3.7-8.35m32.25-7-2.3 1 .75 1.7.3 1.2.05 1.1-.4.7-.6.65-1.15.7-.5-.85 1.1-.8.25-.35.25-.5-.1-.55-.25-.85-1.15-2.65 3.3-1.5.45 1M88 229.2l-.1 1.15-9.1-.35.15-1 9.05.2" fill="#424242"/>
    <path d="m76.55 220.15.15 1.05-.25 11.3 5.95.05.35 4.1 3.05-.5.3 1.8.55 1.55 3.55 7.95 2.25-1 .5 1-3.35 1.5-3.65-8.25-1.65.75 1.9 4.3-2.75 1.2 1.85 4.2-2.7 1.2 1.75 3.95-1.05.45-2.25-5 2.8-1.2L82 246.4l2.75-1.25L82.9 241l2.65-1.25-.7-2.55-2.9.65-.6-2.75v-1.45l-6.1-.1.45-12-.05-.8-2.25 1v3.4l-9.4 4.2 3.45 7.75 2.45-1.05.3 1.1-3.4 1.5-4.4-9.8 10-4.45.05-3.35 3.8-1.7.3.8" fill="#424242"/>
    <path d="m80.05 211.3 2.05 4.75.3.95.2 1.75 3.3.05-.25 7.45h-1.1l.2-6.4-2.05-.05-.15 6.95-4.1-.2.15-7.25-.3-1.75-.65-1.75.95-.45.8 2.2.2 1-.05 7.05 1.95.1v-7.2l-.15-1.15-.5-1.5-1.45-3.25-5.1 2.25 1.2 2.75-7.95 3.55 1.15 2.5-1.05.5-1.6-3.6 8-3.55-1.9-4.4-2.8 1.25-1.5-3.3 1.05-.45 1.05 2.35 2.75-1.2 1.25 2.75 6.1-2.7m3.7 62.6 1.6 3.55-6.65 2.95-2.6-5.85 1.05-.45 2.25 5.05 4.55-2-.75-1.65-2.8 1.25-1.7-3.85 1-.45 1.25 2.75 2.8-1.3m-24.5-37.65-4.7-10.55 3.35-1.5.45 1-2.4 1.1 4.25 9.55-.95.4" fill="#424242"/>
    <path d="m55.7 222.15.4.9-4.05 1.8 1.8 4.1-1.05.45-2.2-5 5.1-2.25m13.1 20.9-1.8.85 1.75 3.95-1 .45-2.2-4.9 3.8-1.7 7.4-1.95.2 1.05-7.1 1.95 5.7 12.7-3.85 1.7-1.8-4.05-2.7 1.2-1.95-4.3-1.7.75 5.55 12.55-2.7 1.2 3.3 7.45 4.4-1.95-3.75-8.35 3.55-1.6.45.95-2.5 1.15 3.7 8.4-6.5 2.8-4.15-9.4 2.75-1.2-5.55-12.6 3.7-1.65 1.9 4.25 2.65-1.2 1.85 4.1 1.85-.8-5.25-11.8" fill="#424242"/>
    <path d="m82.5 271.3 4.45-1.95 2.5 5.6-1.05.5-2.1-4.65-4.3 1.9-3.75-8.45-1.85.8 1.75 3.95-1 .45L75 264.6l3.8-1.7 3.7 8.4m-22.8-40.85 1.1-.5 4.25 9.5-2.8 1.25 2 4.5-6.4 2.85-4.25-9.5 1.1-.45 3.75 8.45 4.35-1.95-2-4.45 2.65-1.2-3.75-8.5m12.55 1 .4-3.1 1 .2-.25 3.85.3 4 5.9-.9.95 4.4 1.25 2.8-5.7 2.55 5.55 12.5L76.7 260l-.45-1 4-1.75-5.65-12.65 5.55-2.4-.75-1.9-.8-3.7-5.85 1.05-.5-4.9v-1.3m4.85-21.25-.4-.9 2.3-1.05 1.1-.2h.6l.5.15.45.25.45.45.3.5 2.5 5.55.45 2.1-1.1.25-.2-1.25-2.8-6.4-.4-.3-.45-.2-.45-.05-.9.25-1.95.85M87.5 259l-1.85-4.2 2.8-1.25-1.75-3.85 1.05-.5 2.25 5-2.85 1.3 5.1 11.45 1.85-.85-3.75-8.45 3.85-1.75 5 11.25-1.25.55-4.5-10.2-1.55.7 3.75 8.45-3.95 1.75-3.75-8.45-4.4 1.95 1.8 4-1.05.45-2.2-4.95 5.4-2.4" fill="#424242"/>
    <path d="m87.85 264.35 4.1 9.2 1.8-.8-1.15-2.65 1-.45 1.65 3.65-3.8 1.7-4.55-10.25.95-.4M50.25 121l.9-.4.4.9-.9.4-.4-.9M61.9 77.45v-.05l.3-1.1 1.05.35-.3 1.1-1.05-.3m20.05-5.2.75.75-.8.75-.65-.8.7-.7m5.95-6.35-.45.9-.95-.45.45-.95.95.5m.8-15.25.35 1-1.2.3-.2-.95 1.05-.35m5.45-4.6.4.9-.9.4-.4-.9v-.05l.9-.4v.05m-4.4 11.2v1l-1.2-.05v-1.1l1.2.15M54.3 73l.75-.95.8.7-.75.95-.8-.7m16.4 5.35-.15-1.05 1.05-.2.15 1.1-1.05.15m93.85 149.95-.45-1 5.15-2.3.45 1-5.15 2.3m-81.4-147 .9-.45.4.95-.9.4-.4-.9m-7.05 4.15-.4-.9.9-.4.4.9-.9.4m-27.85-29.3v1.05h-1v-1.05h1m.8-7.55.9.35-.4 1-.95-.35.45-1m5.9-6.5-.75.8-.7-.7.7-.75.75.65m1.55-8.05v1.05h-.95V34l.95.05m.85-8.2v1.05h-1v-1.1l1 .05m46.9 216.3h-1v-1h1v1" fill="#424242"/>
    <path d="m102.1 126.75 21.65 48.6-4.5 2.05-21.65-48.6 4.5-2.05m-31-76.15 1.9 1.15 1.5 1.6.9 2.05.25 2.2-.45 2.15-1.15 1.95-1.6 1.5-2.05.9-2.2.2-2.15-.45-1.95-1.1-1.5-1.65-.9-2-.2-2.2.45-2.2 1.1-1.9 1.65-1.5 2-.9 2.2-.25 2.2.45m51.35 143.65 5.45.1.15.35-.65.7-1.1 1.8-.65 2-.15 2.15.4 2.05.85 1.95 1.3 1.65 1.65 1.3 1.95.85 3.25.5 4.65 10.5-4.55 2.05-2.2-4.4-1.45-1.6-.9-.7-.95-.55-1-.4-2.25-.5-4.15-.1.35-19.7" fill="#c9cfd6"/>
    <path d="m131.25 193.25 1.85-.6 1.95-.15 1.95.35 1.8.8 1.5 1.2 1.2 1.55.8 1.8.35 1.9-.1 1.95-.6 1.9-1 1.65-1.4 1.4-1.7 1-1.85.6-1.95.15-1.95-.35-1.8-.8-1.5-1.2-1.2-1.55-.8-1.75-.35-1.95.1-1.95.6-1.85 1-1.7 1.4-1.4 1.7-1" fill="#c9cfd6"/>
    <path d="m161.55 228.85 2.7-1.2.3.65 5.15-2.3-.45-1-5.15 2.3-1.15-2.65 7.7-3.4 2.8 6.25-10.45 4.65-1.45-3.3m25.4-51.35 2.55-1.15 7.05 15.85-6.25 2.8-4.8-10.75 3.7-1.65-2.25-5.1m4.8 13.45 1-.4-2.25-5.05-1 .4 2.25 5.05m-135.2-6.1 5.8 13-2.9 1.3-4.5-10.1-.85.35 4.7 10.6.85-.35 1.3 2.9-3.75 1.65-7.3-16.4 6.65-2.95m6.65-42.95 7.25 16.35-6.05 2.7-5.85-13.2 2.9-1.3 4.5 10.1.3-.15-4.6-10.35-.25.1-1.3-2.9 3.1-1.35m25.4 10.7 3.05-1.35 4.25 9.65.3-.15-4.3-9.65-.15.05-1.35-2.95 3.1-1.4 6.9 15.55-6.2 2.75-5.6-12.5m12.45 84.6v.9h5.1l.05 2.2-7.35-.05.05-5.25 9.8.1v2.75h-2.1v-.6l-5.55-.05" fill="#ffffff"/>
    <path d="m71.1 55.6.4.85.1.95-.2.95-.5.8-.7.65-.85.35-.95.1-.9-.15-.85-.5-.65-.7-.35-.85-.1-.95.15-.95.5-.8.7-.65.85-.4.95-.1.95.2.8.5.65.7m64.4 142.35.85.45.65.7.35.9.1.95-.2.9-.45.85-.7.6-.9.4-.9.1-.95-.2-.8-.45-.65-.7-.4-.9-.1-.95.2-.9.45-.85.75-.6.85-.4.95-.1.9.2" fill="#424242"/>
  </g>
</svg>