<svg xmlns="http://www.w3.org/2000/svg" viewBox="0 0 523.85 158.7">
  <g fill-rule="evenodd">
    <path d="m489.5 58.85 4.85 5.45 6.6 9.45 22.9 39.9-2.15 1.2-7.25-.9-3.35 7-2.15 1.3L486.1 82.6l-2.6-3.9-6.35-7.8-5.6-4.45-1.2-.7-1.5 2.55-75.55-39.1-10.25-4.7-10.7-3-6.55-.9-7.9-.3-8.6.75-13.35 2.65-38 15.65-1.4-2.65-60 25.25 1.4 2.7-41.45 17.5-1.4-2.75-78.1 32.9 1.4 2.75-18.75 7.9 2.55 6-41.65 17.65-4-8.85L6.8 158.7l-.95-2.3.05-4.9-3.95-4.3L0 142.6 320.7 7.8l12.7-4.3L346.7.95 357.45 0l10.6.5 8.45 1.2 7 1.65 7.15 2.4 8.55 3.7 77.85 40.3L485.2 55l4.3 3.85" fill="#424242"/>
    <path d="m483.55 56.9 4.1 3.65 4.7 5.25 6.45 9.2 22.9 39.85-3.9 2.25-33.4-53.5L377.75 9.8l-50.35 5.65-323.35 133-1.7-4.15 319.1-134.15 12.6-4.25 12.9-2.45 10.55-.9 10.2.4 8.2 1.2 6.8 1.6 6.95 2.3 8.4 3.65 81.7 42.5 3.8 2.7" fill="#6f6f6f"/>
    <path d="m297.45 32.9 18.2-7.7 1.8 3.25-18.35 7.7-1.65-3.25m60.4-15.1-8.9.8-11.5 2.25-1.7-3.75 29.85-4.95 21.65 7.4-.85 3.7-8.1-2.9-5.5-1.3-6.8-.9-8.15-.35m92.4 38.05 1.85-3.2q8.85 4.6 17.65 9.15l-1.85 3.15-17.65-9.1M234.5 63.4l-36.85 15.5-1.65-3.25 36.85-15.5 1.65 3.25m182.05-29.1-1.85 3.15-17.9-9.25 1.85-3.15 17.9 9.25m8.4 8.45 1.85-3.15 15.05 7.75-1.85 3.2-15.05-7.8m-363.1 100.6L57.6 134l55.65-23.45 1.7 3.25-18.55 7.8 2.55 6-37.1 15.75" fill="#6f6f6f"/>
    <path d="m485.95 62 4.55 5.1 6.35 9.05 22.9 39.8-8.65 5-22.85-39.7-2.7-4-6.6-8.1-6.05-4.8-80.3-41.7-7.6-3.3-11.65-3.25-7.1-.95-8.45-.35-9.3.8-11.3 2.2-11.65 3.9L5.85 156.4l-3.9-9.2L322.2 12.3l12.45-4.2 12.5-2.4 10.4-.9 9.85.4 8 1.1 6.6 1.55 6.75 2.25 8.3 3.6 77.65 40.15 7.35 4.7 3.9 3.45" fill="#959595"/>
  </g>
</svg>